<svg width="1728" height="1117" viewBox="0 0 1728 1117" fill="none" xmlns="http://www.w3.org/2000/svg">
<g clip-path="url(#clip0_218_2)">
<rect width="1728" height="1117" rx="15" fill="#F2F2F2"/>
<path d="M37.25 570.75V533.25H41.4167V566.583H74.75V570.75H37.25ZM43.5 564.5V545.75H51.8333V564.5H43.5ZM53.9167 564.5V535.333H62.25V564.5H53.9167ZM64.3333 564.5V554.083H72.6667V564.5H64.3333Z" fill="#999999"/>
<path d="M54 361.225L66.5 372.475V392H61.5V377H46.5V392H41.5V372.475L54 361.225ZM54 354.5L29 377H36.5V397H51.5V382H56.5V397H71.5V377H79" fill="#999999"/>
<g filter="url(#filter0_d_218_2)">
<rect x="11" y="418" width="118" height="92" rx="20" fill="white"/>
</g>
<path d="M33.1668 445.25V443.167C32.6143 443.167 32.0844 443.386 31.6937 443.777C31.303 444.168 31.0835 444.697 31.0835 445.25H33.1668ZM56.0835 445.25H58.1668C58.1668 444.697 57.9473 444.168 57.5566 443.777C57.1659 443.386 56.636 443.167 56.0835 443.167V445.25ZM56.0835 457.75V455.667C55.531 455.667 55.0011 455.886 54.6104 456.277C54.2197 456.668 54.0002 457.197 54.0002 457.75H56.0835ZM33.1668 447.333H56.0835V443.167H33.1668V447.333ZM54.0002 445.25V478.583H58.1668V445.25H54.0002ZM35.2502 474.417V445.25H31.0835V474.417H35.2502ZM56.0835 459.833H66.5002V455.667H56.0835V459.833ZM72.7502 466.083V474.417H76.9168V466.083H72.7502ZM58.1668 478.583V457.75H54.0002V478.583H58.1668ZM67.9731 480.056C67.5824 480.447 67.0526 480.666 66.5002 480.666C65.9477 480.666 65.4179 480.447 65.0272 480.056L62.0814 483.002C63.2535 484.174 64.8429 484.832 66.5002 484.832C68.1574 484.832 69.7469 484.174 70.9189 483.002L67.9731 480.056ZM65.0272 477.11C65.4179 476.72 65.9477 476.5 66.5002 476.5C67.0526 476.5 67.5824 476.72 67.9731 477.11L70.9189 474.165C69.7469 472.993 68.1574 472.335 66.5002 472.335C64.8429 472.335 63.2535 472.993 62.0814 474.165L65.0272 477.11ZM42.9731 480.056C42.5824 480.447 42.0526 480.666 41.5002 480.666C40.9477 480.666 40.4179 480.447 40.0272 480.056L37.0814 483.002C38.2535 484.174 39.8429 484.832 41.5002 484.832C43.1574 484.832 44.7469 484.174 45.9189 483.002L42.9731 480.056ZM40.0272 477.11C40.4179 476.72 40.9477 476.5 41.5002 476.5C42.0526 476.5 42.5824 476.72 42.9731 477.11L45.9189 474.165C44.7469 472.993 43.1574 472.335 41.5002 472.335C39.8429 472.335 38.2535 472.993 37.0814 474.165L40.0272 477.11ZM67.9731 477.11C68.3814 477.517 68.5835 478.048 68.5835 478.583H72.7502C72.7502 476.987 72.1397 475.383 70.9189 474.165L67.9731 477.11ZM68.5835 478.583C68.5841 478.857 68.5305 479.128 68.4257 479.381C68.3209 479.634 68.1671 479.863 67.9731 480.056L70.9189 483.002C71.4999 482.422 71.9607 481.733 72.2749 480.975C72.5892 480.217 72.7507 479.404 72.7502 478.583H68.5835ZM62.3335 476.5H56.0835V480.667H62.3335V476.5ZM65.0272 480.056C64.8332 479.863 64.6794 479.634 64.5746 479.381C64.4698 479.128 64.4162 478.857 64.4168 478.583H60.2502C60.2502 480.179 60.8606 481.783 62.0814 483.002L65.0272 480.056ZM64.4168 478.583C64.4157 478.31 64.4692 478.038 64.574 477.786C64.6788 477.533 64.8328 477.303 65.0272 477.11L62.0814 474.165C61.5005 474.744 61.0396 475.433 60.7254 476.191C60.4112 476.95 60.2497 477.763 60.2502 478.583H64.4168ZM40.0272 480.056C39.8332 479.863 39.6794 479.634 39.5746 479.381C39.4698 479.128 39.4162 478.857 39.4168 478.583H35.2502C35.2502 480.179 35.8606 481.783 37.0814 483.002L40.0272 480.056ZM39.4168 478.583C39.4157 478.31 39.4692 478.038 39.574 477.786C39.6788 477.533 39.8328 477.303 40.0272 477.11L37.0814 474.165C36.5005 474.744 36.0396 475.433 35.7254 476.191C35.4112 476.95 35.2497 477.763 35.2502 478.583H39.4168ZM56.0835 476.5H45.6668V480.667H56.0835V476.5ZM42.9731 477.11C43.3814 477.517 43.5835 478.048 43.5835 478.583H47.7502C47.7502 476.987 47.1397 475.383 45.9189 474.165L42.9731 477.11ZM43.5835 478.583C43.5841 478.857 43.5305 479.128 43.4257 479.381C43.321 479.634 43.1671 479.863 42.9731 480.056L45.9189 483.002C46.4999 482.422 46.9607 481.733 47.2749 480.975C47.5892 480.217 47.7507 479.404 47.7502 478.583H43.5835ZM72.7502 474.417C72.7502 474.969 72.5307 475.499 72.14 475.89C71.7493 476.281 71.2194 476.5 70.6668 476.5V480.667C72.3244 480.667 73.9141 480.008 75.0862 478.836C76.2583 477.664 76.9168 476.074 76.9168 474.417H72.7502ZM66.5002 459.833C68.1578 459.833 69.7475 460.492 70.9196 461.664C72.0917 462.836 72.7502 464.426 72.7502 466.083H76.9168C76.9168 464.715 76.6474 463.361 76.1239 462.097C75.6004 460.833 74.8331 459.685 73.8659 458.718C72.8986 457.75 71.7503 456.983 70.4865 456.46C69.2226 455.936 67.8681 455.667 66.5002 455.667V459.833ZM31.0835 474.417C31.0835 476.074 31.742 477.664 32.9141 478.836C34.0862 480.008 35.6759 480.667 37.3335 480.667V476.5C36.781 476.5 36.2511 476.281 35.8604 475.89C35.4697 475.499 35.2502 474.969 35.2502 474.417H31.0835Z" fill="#999999"/>
<g filter="url(#filter1_d_218_2)">
<rect x="113" y="25" width="1592" height="1073" rx="20" fill="white"/>
</g>
<path d="M235.602 62V47.9961H240.562C245.536 47.9961 248.023 50.2715 248.023 54.8223C248.023 57.0033 247.343 58.7448 245.982 60.0469C244.628 61.349 242.822 62 240.562 62H235.602ZM238.756 50.5645V59.4414H240.318C241.686 59.4414 242.757 59.0312 243.531 58.2109C244.312 57.3906 244.703 56.2741 244.703 54.8613C244.703 53.5267 244.316 52.4785 243.541 51.7168C242.773 50.9486 241.692 50.5645 240.299 50.5645H238.756ZM259.029 57.8789H252.506C252.61 59.3307 253.525 60.0566 255.25 60.0566C256.35 60.0566 257.317 59.7962 258.15 59.2754V61.502C257.226 61.9967 256.025 62.2441 254.547 62.2441C252.932 62.2441 251.679 61.7982 250.787 60.9062C249.895 60.0078 249.449 58.7578 249.449 57.1562C249.449 55.4961 249.931 54.181 250.895 53.2109C251.858 52.2409 253.043 51.7559 254.449 51.7559C255.908 51.7559 257.034 52.1888 257.828 53.0547C258.629 53.9206 259.029 55.0957 259.029 56.5801V57.8789ZM256.168 55.9844C256.168 54.5521 255.589 53.8359 254.43 53.8359C253.935 53.8359 253.505 54.041 253.141 54.4512C252.783 54.8613 252.564 55.3724 252.486 55.9844H256.168ZM263.951 62H260.865V47.1953H263.951V62ZM268.111 50.418C267.59 50.418 267.164 50.265 266.832 49.959C266.5 49.6465 266.334 49.2656 266.334 48.8164C266.334 48.3542 266.5 47.9766 266.832 47.6836C267.164 47.3906 267.59 47.2441 268.111 47.2441C268.639 47.2441 269.065 47.3906 269.391 47.6836C269.723 47.9766 269.889 48.3542 269.889 48.8164C269.889 49.2852 269.723 49.6693 269.391 49.9688C269.065 50.2682 268.639 50.418 268.111 50.418ZM269.635 62H266.549V52H269.635V62ZM281.754 52L278.033 62H274.518L270.973 52H274.273L276.012 58.1621C276.207 58.8587 276.321 59.4512 276.354 59.9395H276.393C276.438 59.4772 276.559 58.9043 276.754 58.2207L278.531 52H281.754ZM291.861 57.8789H285.338C285.442 59.3307 286.357 60.0566 288.082 60.0566C289.182 60.0566 290.149 59.7962 290.982 59.2754V61.502C290.058 61.9967 288.857 62.2441 287.379 62.2441C285.764 62.2441 284.511 61.7982 283.619 60.9062C282.727 60.0078 282.281 58.7578 282.281 57.1562C282.281 55.4961 282.763 54.181 283.727 53.2109C284.69 52.2409 285.875 51.7559 287.281 51.7559C288.74 51.7559 289.866 52.1888 290.66 53.0547C291.461 53.9206 291.861 55.0957 291.861 56.5801V57.8789ZM289 55.9844C289 54.5521 288.421 53.8359 287.262 53.8359C286.767 53.8359 286.337 54.041 285.973 54.4512C285.615 54.8613 285.396 55.3724 285.318 55.9844H289ZM300.221 54.7832C299.85 54.5814 299.417 54.4805 298.922 54.4805C298.251 54.4805 297.727 54.7279 297.35 55.2227C296.972 55.7109 296.783 56.3783 296.783 57.2246V62H293.697V52H296.783V53.8555H296.822C297.311 52.5013 298.189 51.8242 299.459 51.8242C299.785 51.8242 300.038 51.8633 300.221 51.9414V54.7832ZM311.988 52L307.926 62.8008C306.949 65.3984 305.478 66.6973 303.512 66.6973C302.763 66.6973 302.148 66.6126 301.666 66.4434V63.9824C302.076 64.2233 302.522 64.3438 303.004 64.3438C303.798 64.3438 304.352 63.9694 304.664 63.2207L305.191 61.9805L301.129 52H304.547L306.412 58.084C306.529 58.4616 306.62 58.9076 306.686 59.4219H306.725C306.783 59.0443 306.891 58.6048 307.047 58.1035L308.932 52H311.988Z" fill="black"/>
<g clip-path="url(#clip1_218_2)" filter="url(#filter2_d_218_2)">
<rect width="50" height="50" transform="translate(29 1019)" fill="white"/>
<path d="M71.5979 1061.61H64.1937V1050.01C64.1937 1047.24 64.1375 1043.68 60.3354 1043.68C56.475 1043.68 55.8854 1046.69 55.8854 1049.8V1061.61H48.4813V1037.75H55.5938V1041H55.6896C56.6833 1039.13 59.1 1037.15 62.7104 1037.15C70.2125 1037.15 71.6 1042.09 71.6 1048.51L71.5979 1061.61ZM40.1188 1034.49C37.7354 1034.49 35.8208 1032.56 35.8208 1030.18C35.8208 1027.81 37.7375 1025.89 40.1188 1025.89C42.4938 1025.89 44.4187 1027.81 44.4187 1030.18C44.4187 1032.56 42.4917 1034.49 40.1188 1034.49ZM43.8312 1061.61H36.4062V1037.75H43.8312V1061.61ZM75.3021 1019H32.6896C30.65 1019 29 1020.61 29 1022.6V1065.4C29 1067.39 30.65 1069 32.6896 1069H75.2958C77.3333 1069 79 1067.39 79 1065.4V1022.6C79 1020.61 77.3333 1019 75.2958 1019H75.3021Z" fill="#3A3A3A"/>
</g>
<g filter="url(#filter3_d_218_2)">
<rect x="218" y="283" width="724.5" height="385.5" rx="20" fill="white"/>
</g>
<g filter="url(#filter4_d_218_2)">
<rect x="218" y="683.5" width="724.5" height="385.5" rx="20" fill="white"/>
</g>
<g filter="url(#filter5_d_218_2)">
<rect x="957.5" y="283" width="724.5" height="385.5" rx="20" fill="white"/>
</g>
<g filter="url(#filter6_d_218_2)">
<rect x="957.5" y="683.5" width="724.5" height="385.5" rx="20" fill="white"/>
</g>
<g filter="url(#filter7_d_218_2)">
<rect x="218" y="129" width="279.8" height="137" rx="20" fill="white"/>
</g>
<g filter="url(#filter8_d_218_2)">
<rect x="512.8" y="129" width="279.8" height="137" rx="20" fill="white"/>
</g>
<g filter="url(#filter9_d_218_2)">
<rect x="807.6" y="129" width="279.8" height="137" rx="20" fill="white"/>
</g>
<g filter="url(#filter10_d_218_2)">
<rect x="1102.4" y="129" width="279.8" height="137" rx="20" fill="white"/>
</g>
<g filter="url(#filter11_d_218_2)">
<rect x="1397.2" y="129" width="279.8" height="137" rx="20" fill="white"/>
</g>
<line y1="-0.5" x2="279.578" y2="-0.5" transform="matrix(1 0.000447898 -0.00417813 0.999991 224.109 215)" stroke="#D9D9D9"/>
<line y1="-0.5" x2="279.578" y2="-0.5" transform="matrix(1 0.000447898 -0.00417813 0.999991 518.688 215)" stroke="#D9D9D9"/>
<line y1="-0.5" x2="279.578" y2="-0.5" transform="matrix(1 0.000447898 -0.00417813 0.999991 813.266 215)" stroke="#D9D9D9"/>
<line y1="-0.5" x2="279.578" y2="-0.5" transform="matrix(1 0.000447898 -0.00417813 0.999991 1107.84 215)" stroke="#D9D9D9"/>
<line y1="-0.5" x2="279.578" y2="-0.5" transform="matrix(1 0.000447898 -0.00417813 0.999991 1402.42 215)" stroke="#D9D9D9"/>
</g>
<defs>
<filter id="filter0_d_218_2" x="-23" y="384" width="198" height="172" filterUnits="userSpaceOnUse" color-interpolation-filters="sRGB">
<feFlood flood-opacity="0" result="BackgroundImageFix"/>
<feColorMatrix in="SourceAlpha" type="matrix" values="0 0 0 0 0 0 0 0 0 0 0 0 0 0 0 0 0 0 127 0" result="hardAlpha"/>
<feOffset dx="6" dy="6"/>
<feGaussianBlur stdDeviation="20"/>
<feComposite in2="hardAlpha" operator="out"/>
<feColorMatrix type="matrix" values="0 0 0 0 0.904167 0 0 0 0 0.904167 0 0 0 0 0.904167 0 0 0 1 0"/>
<feBlend mode="normal" in2="BackgroundImageFix" result="effect1_dropShadow_218_2"/>
<feBlend mode="normal" in="SourceGraphic" in2="effect1_dropShadow_218_2" result="shape"/>
</filter>
<filter id="filter1_d_218_2" x="81" y="-7" width="1672" height="1153" filterUnits="userSpaceOnUse" color-interpolation-filters="sRGB">
<feFlood flood-opacity="0" result="BackgroundImageFix"/>
<feColorMatrix in="SourceAlpha" type="matrix" values="0 0 0 0 0 0 0 0 0 0 0 0 0 0 0 0 0 0 127 0" result="hardAlpha"/>
<feOffset dx="8" dy="8"/>
<feGaussianBlur stdDeviation="20"/>
<feComposite in2="hardAlpha" operator="out"/>
<feColorMatrix type="matrix" values="0 0 0 0 0.904167 0 0 0 0 0.904167 0 0 0 0 0.904167 0 0 0 1 0"/>
<feBlend mode="normal" in2="BackgroundImageFix" result="effect1_dropShadow_218_2"/>
<feBlend mode="normal" in="SourceGraphic" in2="effect1_dropShadow_218_2" result="shape"/>
</filter>
<filter id="filter2_d_218_2" x="25" y="1019" width="58" height="58" filterUnits="userSpaceOnUse" color-interpolation-filters="sRGB">
<feFlood flood-opacity="0" result="BackgroundImageFix"/>
<feColorMatrix in="SourceAlpha" type="matrix" values="0 0 0 0 0 0 0 0 0 0 0 0 0 0 0 0 0 0 127 0" result="hardAlpha"/>
<feOffset dy="4"/>
<feGaussianBlur stdDeviation="2"/>
<feComposite in2="hardAlpha" operator="out"/>
<feColorMatrix type="matrix" values="0 0 0 0 0 0 0 0 0 0 0 0 0 0 0 0 0 0 0.25 0"/>
<feBlend mode="normal" in2="BackgroundImageFix" result="effect1_dropShadow_218_2"/>
<feBlend mode="normal" in="SourceGraphic" in2="effect1_dropShadow_218_2" result="shape"/>
</filter>
<filter id="filter3_d_218_2" x="184" y="249" width="804.5" height="465.5" filterUnits="userSpaceOnUse" color-interpolation-filters="sRGB">
<feFlood flood-opacity="0" result="BackgroundImageFix"/>
<feColorMatrix in="SourceAlpha" type="matrix" values="0 0 0 0 0 0 0 0 0 0 0 0 0 0 0 0 0 0 127 0" result="hardAlpha"/>
<feOffset dx="6" dy="6"/>
<feGaussianBlur stdDeviation="20"/>
<feComposite in2="hardAlpha" operator="out"/>
<feColorMatrix type="matrix" values="0 0 0 0 0.904167 0 0 0 0 0.904167 0 0 0 0 0.904167 0 0 0 1 0"/>
<feBlend mode="normal" in2="BackgroundImageFix" result="effect1_dropShadow_218_2"/>
<feBlend mode="normal" in="SourceGraphic" in2="effect1_dropShadow_218_2" result="shape"/>
</filter>
<filter id="filter4_d_218_2" x="184" y="649.5" width="804.5" height="465.5" filterUnits="userSpaceOnUse" color-interpolation-filters="sRGB">
<feFlood flood-opacity="0" result="BackgroundImageFix"/>
<feColorMatrix in="SourceAlpha" type="matrix" values="0 0 0 0 0 0 0 0 0 0 0 0 0 0 0 0 0 0 127 0" result="hardAlpha"/>
<feOffset dx="6" dy="6"/>
<feGaussianBlur stdDeviation="20"/>
<feComposite in2="hardAlpha" operator="out"/>
<feColorMatrix type="matrix" values="0 0 0 0 0.904167 0 0 0 0 0.904167 0 0 0 0 0.904167 0 0 0 1 0"/>
<feBlend mode="normal" in2="BackgroundImageFix" result="effect1_dropShadow_218_2"/>
<feBlend mode="normal" in="SourceGraphic" in2="effect1_dropShadow_218_2" result="shape"/>
</filter>
<filter id="filter5_d_218_2" x="923.5" y="249" width="804.5" height="465.5" filterUnits="userSpaceOnUse" color-interpolation-filters="sRGB">
<feFlood flood-opacity="0" result="BackgroundImageFix"/>
<feColorMatrix in="SourceAlpha" type="matrix" values="0 0 0 0 0 0 0 0 0 0 0 0 0 0 0 0 0 0 127 0" result="hardAlpha"/>
<feOffset dx="6" dy="6"/>
<feGaussianBlur stdDeviation="20"/>
<feComposite in2="hardAlpha" operator="out"/>
<feColorMatrix type="matrix" values="0 0 0 0 0.904167 0 0 0 0 0.904167 0 0 0 0 0.904167 0 0 0 1 0"/>
<feBlend mode="normal" in2="BackgroundImageFix" result="effect1_dropShadow_218_2"/>
<feBlend mode="normal" in="SourceGraphic" in2="effect1_dropShadow_218_2" result="shape"/>
</filter>
<filter id="filter6_d_218_2" x="923.5" y="649.5" width="804.5" height="465.5" filterUnits="userSpaceOnUse" color-interpolation-filters="sRGB">
<feFlood flood-opacity="0" result="BackgroundImageFix"/>
<feColorMatrix in="SourceAlpha" type="matrix" values="0 0 0 0 0 0 0 0 0 0 0 0 0 0 0 0 0 0 127 0" result="hardAlpha"/>
<feOffset dx="6" dy="6"/>
<feGaussianBlur stdDeviation="20"/>
<feComposite in2="hardAlpha" operator="out"/>
<feColorMatrix type="matrix" values="0 0 0 0 0.904167 0 0 0 0 0.904167 0 0 0 0 0.904167 0 0 0 1 0"/>
<feBlend mode="normal" in2="BackgroundImageFix" result="effect1_dropShadow_218_2"/>
<feBlend mode="normal" in="SourceGraphic" in2="effect1_dropShadow_218_2" result="shape"/>
</filter>
<filter id="filter7_d_218_2" x="184" y="95" width="359.8" height="217" filterUnits="userSpaceOnUse" color-interpolation-filters="sRGB">
<feFlood flood-opacity="0" result="BackgroundImageFix"/>
<feColorMatrix in="SourceAlpha" type="matrix" values="0 0 0 0 0 0 0 0 0 0 0 0 0 0 0 0 0 0 127 0" result="hardAlpha"/>
<feOffset dx="6" dy="6"/>
<feGaussianBlur stdDeviation="20"/>
<feComposite in2="hardAlpha" operator="out"/>
<feColorMatrix type="matrix" values="0 0 0 0 0.904167 0 0 0 0 0.904167 0 0 0 0 0.904167 0 0 0 1 0"/>
<feBlend mode="normal" in2="BackgroundImageFix" result="effect1_dropShadow_218_2"/>
<feBlend mode="normal" in="SourceGraphic" in2="effect1_dropShadow_218_2" result="shape"/>
</filter>
<filter id="filter8_d_218_2" x="478.8" y="95" width="359.8" height="217" filterUnits="userSpaceOnUse" color-interpolation-filters="sRGB">
<feFlood flood-opacity="0" result="BackgroundImageFix"/>
<feColorMatrix in="SourceAlpha" type="matrix" values="0 0 0 0 0 0 0 0 0 0 0 0 0 0 0 0 0 0 127 0" result="hardAlpha"/>
<feOffset dx="6" dy="6"/>
<feGaussianBlur stdDeviation="20"/>
<feComposite in2="hardAlpha" operator="out"/>
<feColorMatrix type="matrix" values="0 0 0 0 0.904167 0 0 0 0 0.904167 0 0 0 0 0.904167 0 0 0 1 0"/>
<feBlend mode="normal" in2="BackgroundImageFix" result="effect1_dropShadow_218_2"/>
<feBlend mode="normal" in="SourceGraphic" in2="effect1_dropShadow_218_2" result="shape"/>
</filter>
<filter id="filter9_d_218_2" x="773.6" y="95" width="359.8" height="217" filterUnits="userSpaceOnUse" color-interpolation-filters="sRGB">
<feFlood flood-opacity="0" result="BackgroundImageFix"/>
<feColorMatrix in="SourceAlpha" type="matrix" values="0 0 0 0 0 0 0 0 0 0 0 0 0 0 0 0 0 0 127 0" result="hardAlpha"/>
<feOffset dx="6" dy="6"/>
<feGaussianBlur stdDeviation="20"/>
<feComposite in2="hardAlpha" operator="out"/>
<feColorMatrix type="matrix" values="0 0 0 0 0.904167 0 0 0 0 0.904167 0 0 0 0 0.904167 0 0 0 1 0"/>
<feBlend mode="normal" in2="BackgroundImageFix" result="effect1_dropShadow_218_2"/>
<feBlend mode="normal" in="SourceGraphic" in2="effect1_dropShadow_218_2" result="shape"/>
</filter>
<filter id="filter10_d_218_2" x="1068.4" y="95" width="359.8" height="217" filterUnits="userSpaceOnUse" color-interpolation-filters="sRGB">
<feFlood flood-opacity="0" result="BackgroundImageFix"/>
<feColorMatrix in="SourceAlpha" type="matrix" values="0 0 0 0 0 0 0 0 0 0 0 0 0 0 0 0 0 0 127 0" result="hardAlpha"/>
<feOffset dx="6" dy="6"/>
<feGaussianBlur stdDeviation="20"/>
<feComposite in2="hardAlpha" operator="out"/>
<feColorMatrix type="matrix" values="0 0 0 0 0.904167 0 0 0 0 0.904167 0 0 0 0 0.904167 0 0 0 1 0"/>
<feBlend mode="normal" in2="BackgroundImageFix" result="effect1_dropShadow_218_2"/>
<feBlend mode="normal" in="SourceGraphic" in2="effect1_dropShadow_218_2" result="shape"/>
</filter>
<filter id="filter11_d_218_2" x="1363.2" y="95" width="359.8" height="217" filterUnits="userSpaceOnUse" color-interpolation-filters="sRGB">
<feFlood flood-opacity="0" result="BackgroundImageFix"/>
<feColorMatrix in="SourceAlpha" type="matrix" values="0 0 0 0 0 0 0 0 0 0 0 0 0 0 0 0 0 0 127 0" result="hardAlpha"/>
<feOffset dx="6" dy="6"/>
<feGaussianBlur stdDeviation="20"/>
<feComposite in2="hardAlpha" operator="out"/>
<feColorMatrix type="matrix" values="0 0 0 0 0.904167 0 0 0 0 0.904167 0 0 0 0 0.904167 0 0 0 1 0"/>
<feBlend mode="normal" in2="BackgroundImageFix" result="effect1_dropShadow_218_2"/>
<feBlend mode="normal" in="SourceGraphic" in2="effect1_dropShadow_218_2" result="shape"/>
</filter>
<clipPath id="clip0_218_2">
<rect width="1728" height="1117" rx="15" fill="white"/>
</clipPath>
<clipPath id="clip1_218_2">
<rect width="50" height="50" fill="white" transform="translate(29 1019)"/>
</clipPath>
</defs>
</svg>
