<svg width="1728" height="1117" viewBox="0 0 1728 1117" fill="none" xmlns="http://www.w3.org/2000/svg">
<g clip-path="url(#clip0_201_3)">
<rect width="1728" height="1117" rx="15" fill="#F2F2F2"/>
<path d="M33.1668 445.25V443.167C32.6143 443.167 32.0844 443.386 31.6937 443.777C31.303 444.168 31.0835 444.697 31.0835 445.25H33.1668ZM56.0835 445.25H58.1668C58.1668 444.697 57.9473 444.168 57.5566 443.777C57.1659 443.386 56.636 443.167 56.0835 443.167V445.25ZM56.0835 457.75V455.667C55.531 455.667 55.0011 455.886 54.6104 456.277C54.2197 456.668 54.0002 457.197 54.0002 457.75H56.0835ZM33.1668 447.333H56.0835V443.167H33.1668V447.333ZM54.0002 445.25V478.583H58.1668V445.25H54.0002ZM35.2502 474.417V445.25H31.0835V474.417H35.2502ZM56.0835 459.833H66.5002V455.667H56.0835V459.833ZM72.7502 466.083V474.417H76.9168V466.083H72.7502ZM58.1668 478.583V457.75H54.0002V478.583H58.1668ZM67.9731 480.056C67.5824 480.447 67.0526 480.666 66.5002 480.666C65.9477 480.666 65.4179 480.447 65.0272 480.056L62.0814 483.002C63.2535 484.174 64.8429 484.832 66.5002 484.832C68.1574 484.832 69.7469 484.174 70.9189 483.002L67.9731 480.056ZM65.0272 477.11C65.4179 476.72 65.9477 476.5 66.5002 476.5C67.0526 476.5 67.5824 476.72 67.9731 477.11L70.9189 474.165C69.7469 472.993 68.1574 472.335 66.5002 472.335C64.8429 472.335 63.2535 472.993 62.0814 474.165L65.0272 477.11ZM42.9731 480.056C42.5824 480.447 42.0526 480.666 41.5002 480.666C40.9477 480.666 40.4179 480.447 40.0272 480.056L37.0814 483.002C38.2535 484.174 39.8429 484.832 41.5002 484.832C43.1574 484.832 44.7469 484.174 45.9189 483.002L42.9731 480.056ZM40.0272 477.11C40.4179 476.72 40.9477 476.5 41.5002 476.5C42.0526 476.5 42.5824 476.72 42.9731 477.11L45.9189 474.165C44.7469 472.993 43.1574 472.335 41.5002 472.335C39.8429 472.335 38.2535 472.993 37.0814 474.165L40.0272 477.11ZM67.9731 477.11C68.3814 477.517 68.5835 478.048 68.5835 478.583H72.7502C72.7502 476.987 72.1397 475.383 70.9189 474.165L67.9731 477.11ZM68.5835 478.583C68.5841 478.857 68.5305 479.128 68.4257 479.381C68.3209 479.634 68.1671 479.863 67.9731 480.056L70.9189 483.002C71.4999 482.422 71.9607 481.733 72.2749 480.975C72.5892 480.217 72.7507 479.404 72.7502 478.583H68.5835ZM62.3335 476.5H56.0835V480.667H62.3335V476.5ZM65.0272 480.056C64.8332 479.863 64.6794 479.634 64.5746 479.381C64.4698 479.128 64.4162 478.857 64.4168 478.583H60.2502C60.2502 480.179 60.8606 481.783 62.0814 483.002L65.0272 480.056ZM64.4168 478.583C64.4157 478.31 64.4692 478.038 64.574 477.786C64.6788 477.533 64.8328 477.303 65.0272 477.11L62.0814 474.165C61.5005 474.744 61.0396 475.433 60.7254 476.191C60.4112 476.95 60.2497 477.763 60.2502 478.583H64.4168ZM40.0272 480.056C39.8332 479.863 39.6794 479.634 39.5746 479.381C39.4698 479.128 39.4162 478.857 39.4168 478.583H35.2502C35.2502 480.179 35.8606 481.783 37.0814 483.002L40.0272 480.056ZM39.4168 478.583C39.4157 478.31 39.4692 478.038 39.574 477.786C39.6788 477.533 39.8328 477.303 40.0272 477.11L37.0814 474.165C36.5005 474.744 36.0396 475.433 35.7254 476.191C35.4112 476.95 35.2497 477.763 35.2502 478.583H39.4168ZM56.0835 476.5H45.6668V480.667H56.0835V476.5ZM42.9731 477.11C43.3814 477.517 43.5835 478.048 43.5835 478.583H47.7502C47.7502 476.987 47.1397 475.383 45.9189 474.165L42.9731 477.11ZM43.5835 478.583C43.5841 478.857 43.5305 479.128 43.4257 479.381C43.321 479.634 43.1671 479.863 42.9731 480.056L45.9189 483.002C46.4999 482.422 46.9607 481.733 47.2749 480.975C47.5892 480.217 47.7507 479.404 47.7502 478.583H43.5835ZM72.7502 474.417C72.7502 474.969 72.5307 475.499 72.14 475.89C71.7493 476.281 71.2194 476.5 70.6668 476.5V480.667C72.3244 480.667 73.9141 480.008 75.0862 478.836C76.2583 477.664 76.9168 476.074 76.9168 474.417H72.7502ZM66.5002 459.833C68.1578 459.833 69.7475 460.492 70.9196 461.664C72.0917 462.836 72.7502 464.426 72.7502 466.083H76.9168C76.9168 464.715 76.6474 463.361 76.1239 462.097C75.6004 460.833 74.8331 459.685 73.8659 458.718C72.8986 457.75 71.7503 456.983 70.4865 456.46C69.2226 455.936 67.8681 455.667 66.5002 455.667V459.833ZM31.0835 474.417C31.0835 476.074 31.742 477.664 32.9141 478.836C34.0862 480.008 35.6759 480.667 37.3335 480.667V476.5C36.781 476.5 36.2511 476.281 35.8604 475.89C35.4697 475.499 35.2502 474.969 35.2502 474.417H31.0835Z" fill="#999999"/>
<path d="M54 366.225L66.5 377.475V397H61.5V382H46.5V397H41.5V377.475L54 366.225ZM54 359.5L29 382H36.5V402H51.5V387H56.5V402H71.5V382H79" fill="#999999"/>
<g filter="url(#filter0_d_201_3)">
<rect x="113" y="25" width="1592" height="1073" rx="20" fill="white"/>
</g>
<path d="M236.12 47.2C236.12 46.52 236.027 46.02 235.84 45.7C235.653 45.3667 235.28 45.2 234.72 45.2H234.32V44.8H239.56C242.147 44.8 244.1 45.3733 245.42 46.52C246.753 47.6667 247.42 49.2667 247.42 51.32C247.42 52.64 247.14 53.8067 246.58 54.82C246.02 55.82 245.187 56.6 244.08 57.16C242.987 57.72 241.653 58 240.08 58H236.12V47.2ZM240.02 57.3C241.007 57.3 241.893 57.06 242.68 56.58C243.48 56.0867 244.107 55.4 244.56 54.52C245.013 53.6267 245.24 52.5867 245.24 51.4C245.24 50.24 245.013 49.2133 244.56 48.32C244.12 47.4267 243.5 46.7333 242.7 46.24C241.9 45.7467 240.993 45.5 239.98 45.5C239.34 45.5 238.673 45.6067 237.98 45.82V57.04C238.727 57.2133 239.407 57.3 240.02 57.3ZM253.397 58.2C252.49 58.2 251.724 57.9867 251.097 57.56C250.47 57.12 249.997 56.5333 249.677 55.8C249.357 55.0533 249.197 54.22 249.197 53.3C249.197 52.3933 249.357 51.5667 249.677 50.82C249.997 50.0733 250.457 49.4867 251.057 49.06C251.67 48.62 252.384 48.4 253.197 48.4C254.544 48.4 255.544 48.78 256.197 49.54C256.864 50.2867 257.197 51.3733 257.197 52.8L257.157 53.6H251.097C251.097 54.72 251.337 55.6333 251.817 56.34C252.297 57.0467 252.957 57.4 253.797 57.4C254.424 57.4 254.95 57.2667 255.377 57C255.817 56.7333 256.224 56.3333 256.597 55.8L256.997 56.1C256.557 56.8333 256.044 57.3667 255.457 57.7C254.87 58.0333 254.184 58.2 253.397 58.2ZM255.297 52.8C255.297 51.6267 255.124 50.7333 254.777 50.12C254.43 49.5067 253.904 49.2 253.197 49.2C252.797 49.2 252.437 49.36 252.117 49.68C251.797 49.9867 251.544 50.4133 251.357 50.96C251.184 51.5067 251.097 52.12 251.097 52.8H255.297ZM259.583 47.2C259.583 46.52 259.489 46.02 259.303 45.7C259.116 45.3667 258.743 45.2 258.183 45.2H257.782V44.8H259.583C260.076 44.8 260.443 44.8667 260.683 45C260.936 45.12 261.116 45.3467 261.223 45.68C261.329 46.0133 261.383 46.52 261.383 47.2V58H259.583V47.2ZM265.406 47.4C265.1 47.4 264.833 47.2733 264.606 47.02C264.393 46.7667 264.286 46.4667 264.286 46.12C264.286 45.84 264.366 45.62 264.526 45.46C264.7 45.3 264.926 45.22 265.206 45.22C265.513 45.22 265.773 45.3467 265.986 45.6C266.213 45.8533 266.326 46.1533 266.326 46.5C266.326 46.78 266.24 47 266.066 47.16C265.906 47.32 265.686 47.4 265.406 47.4ZM264.646 51C264.646 50.32 264.553 49.82 264.366 49.5C264.18 49.1667 263.806 49 263.246 49H262.846V48.6H264.646C265.14 48.6 265.506 48.6667 265.746 48.8C266 48.92 266.18 49.1467 266.286 49.48C266.393 49.8133 266.446 50.32 266.446 51V58H264.646V51ZM269.808 50.9C269.488 50.1533 269.181 49.6333 268.888 49.34C268.595 49.0333 268.208 48.8667 267.728 48.84V48.44C267.795 48.44 267.888 48.4333 268.008 48.42C268.141 48.4067 268.275 48.4 268.408 48.4C269.115 48.4 269.755 48.58 270.328 48.94C270.901 49.2867 271.395 49.94 271.808 50.9L273.608 55.2L276.408 48.6H277.408L273.308 58.2H272.908L269.808 50.9ZM282.713 58.2C281.807 58.2 281.04 57.9867 280.413 57.56C279.787 57.12 279.313 56.5333 278.993 55.8C278.673 55.0533 278.513 54.22 278.513 53.3C278.513 52.3933 278.673 51.5667 278.993 50.82C279.313 50.0733 279.773 49.4867 280.373 49.06C280.987 48.62 281.7 48.4 282.513 48.4C283.86 48.4 284.86 48.78 285.513 49.54C286.18 50.2867 286.513 51.3733 286.513 52.8L286.473 53.6H280.413C280.413 54.72 280.653 55.6333 281.133 56.34C281.613 57.0467 282.273 57.4 283.113 57.4C283.74 57.4 284.267 57.2667 284.693 57C285.133 56.7333 285.54 56.3333 285.913 55.8L286.313 56.1C285.873 56.8333 285.36 57.3667 284.773 57.7C284.187 58.0333 283.5 58.2 282.713 58.2ZM284.613 52.8C284.613 51.6267 284.44 50.7333 284.093 50.12C283.747 49.5067 283.22 49.2 282.513 49.2C282.113 49.2 281.753 49.36 281.433 49.68C281.113 49.9867 280.86 50.4133 280.673 50.96C280.5 51.5067 280.413 52.12 280.413 52.8H284.613ZM288.979 51C288.979 50.32 288.886 49.82 288.699 49.5C288.512 49.1667 288.139 49 287.579 49H287.379V48.6H288.979C289.486 48.6 289.866 48.6733 290.119 48.82C290.386 48.9533 290.572 49.18 290.679 49.5H290.779C291.019 49.1933 291.339 48.9333 291.739 48.72C292.152 48.5067 292.632 48.4 293.179 48.4C293.712 48.4 294.112 48.5 294.379 48.7C294.606 48.8733 294.839 49.1733 295.079 49.6L294.279 50.2C294.132 50 293.919 49.8533 293.639 49.76C293.359 49.6533 293.039 49.6 292.679 49.6C292.279 49.6 291.912 49.6933 291.579 49.88C291.246 50.0533 290.979 50.2933 290.779 50.6V58H288.979V51ZM297.428 61.4C298.081 61.4 298.615 61.2467 299.028 60.94C299.455 60.6467 299.821 60.1 300.128 59.3L300.528 58.2L297.328 50.4C296.955 49.44 296.221 48.9067 295.128 48.8V48.4H296.828C297.988 48.4 298.788 48.9333 299.228 50L301.508 55.54L304.028 48.6H305.028L301.128 59.3C300.741 60.3533 300.315 61.0667 299.848 61.44C299.381 61.8133 298.775 62 298.028 62H297.428V61.4Z" fill="black"/>
<path d="M246.44 95.1C245.8 95.1 245.167 94.9267 244.54 94.58C243.913 94.22 243.413 93.5267 243.04 92.5L242.54 91.2H236.94L235.34 95H234.44L240.04 81.8H240.64L245.04 92.5C245.373 93.2733 245.687 93.8067 245.98 94.1C246.273 94.38 246.693 94.5467 247.24 94.6V95C247 95.0667 246.733 95.1 246.44 95.1ZM242.14 90.4L239.74 84.6L237.24 90.4H242.14ZM251.995 95.2C251.035 95.2 250.222 94.9867 249.555 94.56C248.902 94.12 248.409 93.5333 248.075 92.8C247.755 92.0533 247.595 91.22 247.595 90.3C247.595 89.38 247.755 88.5533 248.075 87.82C248.409 87.0733 248.902 86.4867 249.555 86.06C250.222 85.62 251.035 85.4 251.995 85.4C253.462 85.4 254.429 85.6333 254.895 86.1C255.122 86.3267 255.262 86.6067 255.315 86.94C255.369 87.26 255.395 87.8467 255.395 88.7H254.995C254.942 87.8733 254.682 87.2533 254.215 86.84C253.749 86.4133 253.142 86.2 252.395 86.2C251.435 86.2 250.709 86.58 250.215 87.34C249.735 88.1 249.495 89.0867 249.495 90.3C249.495 91.5133 249.735 92.5 250.215 93.26C250.709 94.02 251.435 94.4 252.395 94.4C253.075 94.4 253.635 94.2733 254.075 94.02C254.515 93.7533 254.922 93.3467 255.295 92.8L255.695 93.1C255.255 93.8467 254.735 94.3867 254.135 94.72C253.535 95.04 252.822 95.2 251.995 95.2ZM261.663 95.2C260.757 95.2 259.97 94.9867 259.303 94.56C258.637 94.12 258.13 93.5267 257.783 92.78C257.437 92.0333 257.263 91.2067 257.263 90.3C257.263 89.3933 257.437 88.5667 257.783 87.82C258.13 87.0733 258.637 86.4867 259.303 86.06C259.97 85.62 260.757 85.4 261.663 85.4C262.57 85.4 263.357 85.62 264.023 86.06C264.69 86.4867 265.197 87.0733 265.543 87.82C265.89 88.5667 266.063 89.3933 266.063 90.3C266.063 91.2067 265.89 92.0333 265.543 92.78C265.197 93.5267 264.69 94.12 264.023 94.56C263.357 94.9867 262.57 95.2 261.663 95.2ZM261.663 94.4C262.157 94.4 262.59 94.22 262.963 93.86C263.35 93.5 263.643 93.0067 263.843 92.38C264.057 91.7533 264.163 91.06 264.163 90.3C264.163 89.54 264.057 88.8467 263.843 88.22C263.643 87.5933 263.35 87.1 262.963 86.74C262.59 86.38 262.157 86.2 261.663 86.2C261.17 86.2 260.73 86.38 260.343 86.74C259.97 87.1 259.677 87.5933 259.463 88.22C259.263 88.8467 259.163 89.54 259.163 90.3C259.163 91.06 259.263 91.7533 259.463 92.38C259.677 93.0067 259.97 93.5 260.343 93.86C260.73 94.22 261.17 94.4 261.663 94.4ZM268.709 88C268.709 87.32 268.615 86.82 268.429 86.5C268.242 86.1667 267.869 86 267.309 86H266.909V85.6H268.709C269.202 85.6 269.575 85.6667 269.829 85.8C270.095 85.9333 270.289 86.1333 270.409 86.4H270.509C270.789 86.12 271.149 85.8867 271.589 85.7C272.042 85.5 272.549 85.4 273.109 85.4C273.669 85.4 274.149 85.5067 274.549 85.72C274.949 85.92 275.269 86.28 275.509 86.8C275.855 86.36 276.295 86.02 276.829 85.78C277.375 85.5267 277.935 85.4 278.509 85.4C279.362 85.4 280.042 85.6667 280.549 86.2C281.055 86.7333 281.309 87.6667 281.309 89V95H279.509V89C279.509 88.04 279.375 87.3533 279.109 86.94C278.842 86.5133 278.442 86.3 277.909 86.3C277.535 86.3 277.142 86.44 276.729 86.72C276.315 86.9867 276.009 87.28 275.809 87.6C275.875 87.8 275.909 88.2667 275.909 89V95H274.109V89C274.109 88.04 273.975 87.3533 273.709 86.94C273.442 86.5133 273.042 86.3 272.509 86.3C271.802 86.3 271.135 86.6533 270.509 87.36V95H268.709V88ZM284.412 88C284.412 87.32 284.319 86.82 284.132 86.5C283.945 86.1667 283.572 86 283.012 86H282.612V85.6H284.412C284.919 85.6 285.299 85.6733 285.552 85.82C285.819 85.9533 286.005 86.18 286.112 86.5H286.212C286.452 86.1933 286.792 85.9333 287.232 85.72C287.672 85.5067 288.232 85.4 288.912 85.4C290.059 85.4 290.945 85.8667 291.572 86.8C292.199 87.72 292.512 88.8867 292.512 90.3C292.512 91.7267 292.185 92.9 291.532 93.82C290.892 94.74 289.952 95.2 288.712 95.2C288.205 95.2 287.759 95.1467 287.372 95.04C286.985 94.9333 286.599 94.7867 286.212 94.6V98.8H284.412V88ZM288.112 94.4C288.965 94.4 289.592 94.0267 289.992 93.28C290.405 92.5333 290.612 91.54 290.612 90.3C290.612 89.0733 290.419 88.0867 290.032 87.34C289.645 86.58 289.072 86.2 288.312 86.2C287.419 86.2 286.719 86.6 286.212 87.4V93.8C286.612 93.9867 286.959 94.1333 287.252 94.24C287.545 94.3467 287.832 94.4 288.112 94.4ZM297.114 95.2C296.687 95.2 296.254 95.1133 295.814 94.94C295.374 94.7533 294.994 94.4533 294.674 94.04C294.367 93.6267 294.214 93.08 294.214 92.4C294.214 91.3867 294.68 90.6667 295.614 90.24C296.56 89.8133 297.794 89.6 299.314 89.6H299.914C299.914 88.2933 299.734 87.4 299.374 86.92C299.014 86.44 298.494 86.2 297.814 86.2C297.214 86.2 296.734 86.3267 296.374 86.58C296.014 86.8333 295.76 87.2733 295.614 87.9H294.714C294.714 87.4467 294.74 87.0933 294.794 86.84C294.847 86.5733 294.987 86.3267 295.214 86.1C295.454 85.86 295.847 85.6867 296.394 85.58C296.954 85.46 297.56 85.4 298.214 85.4C299.294 85.4 300.147 85.6933 300.774 86.28C301.4 86.8533 301.714 87.96 301.714 89.6V95H300.714L300.014 94.1H299.914C299.674 94.4067 299.32 94.6667 298.854 94.88C298.387 95.0933 297.807 95.2 297.114 95.2ZM298.014 94.3C298.454 94.3 298.82 94.1933 299.114 93.98C299.407 93.7667 299.674 93.4733 299.914 93.1V90.4H299.314C298.327 90.4 297.547 90.5867 296.974 90.96C296.4 91.32 296.114 91.8 296.114 92.4C296.114 93.0133 296.294 93.4867 296.654 93.82C297.027 94.14 297.48 94.3 298.014 94.3ZM304.803 88C304.803 87.32 304.709 86.82 304.523 86.5C304.336 86.1667 303.963 86 303.403 86H303.002V85.6H304.803C305.296 85.6 305.669 85.6667 305.923 85.8C306.189 85.9333 306.383 86.1333 306.503 86.4H306.603C306.883 86.12 307.243 85.8867 307.683 85.7C308.136 85.5 308.643 85.4 309.203 85.4C310.203 85.4 311.016 85.6667 311.643 86.2C312.283 86.7333 312.603 87.6667 312.603 89V95H310.803V89C310.803 88.0667 310.589 87.3867 310.163 86.96C309.749 86.52 309.229 86.3 308.603 86.3C307.896 86.3 307.229 86.6533 306.603 87.36V95H304.803V88ZM315.381 84.2C315.381 83.52 315.288 83.02 315.101 82.7C314.915 82.3667 314.541 82.2 313.981 82.2H313.581V81.8H315.381C315.875 81.8 316.241 81.8667 316.481 82C316.735 82.12 316.915 82.3467 317.021 82.68C317.128 83.0133 317.181 83.52 317.181 84.2V86.4C317.461 86.12 317.821 85.8867 318.261 85.7C318.715 85.5 319.221 85.4 319.781 85.4C320.781 85.4 321.595 85.6667 322.221 86.2C322.861 86.7333 323.181 87.6667 323.181 89V95H321.381V89C321.381 88.0667 321.168 87.3867 320.741 86.96C320.328 86.52 319.808 86.3 319.181 86.3C318.475 86.3 317.808 86.6533 317.181 87.36V95H315.381V84.2ZM329.627 95.2C328.721 95.2 327.954 94.9867 327.327 94.56C326.701 94.12 326.227 93.5333 325.907 92.8C325.587 92.0533 325.427 91.22 325.427 90.3C325.427 89.3933 325.587 88.5667 325.907 87.82C326.227 87.0733 326.687 86.4867 327.287 86.06C327.901 85.62 328.614 85.4 329.427 85.4C330.774 85.4 331.774 85.78 332.427 86.54C333.094 87.2867 333.427 88.3733 333.427 89.8L333.387 90.6H327.327C327.327 91.72 327.567 92.6333 328.047 93.34C328.527 94.0467 329.187 94.4 330.027 94.4C330.654 94.4 331.181 94.2667 331.607 94C332.047 93.7333 332.454 93.3333 332.827 92.8L333.227 93.1C332.787 93.8333 332.274 94.3667 331.687 94.7C331.101 95.0333 330.414 95.2 329.627 95.2ZM331.527 89.8C331.527 88.6267 331.354 87.7333 331.007 87.12C330.661 86.5067 330.134 86.2 329.427 86.2C329.027 86.2 328.667 86.36 328.347 86.68C328.027 86.9867 327.774 87.4133 327.587 87.96C327.414 88.5067 327.327 89.12 327.327 89.8H331.527ZM344.593 95.2C343.686 95.2 342.9 94.9867 342.233 94.56C341.566 94.12 341.06 93.5267 340.713 92.78C340.366 92.0333 340.193 91.2067 340.193 90.3C340.193 89.3933 340.366 88.5667 340.713 87.82C341.06 87.0733 341.566 86.4867 342.233 86.06C342.9 85.62 343.686 85.4 344.593 85.4C345.5 85.4 346.286 85.62 346.953 86.06C347.62 86.4867 348.126 87.0733 348.473 87.82C348.82 88.5667 348.993 89.3933 348.993 90.3C348.993 91.2067 348.82 92.0333 348.473 92.78C348.126 93.5267 347.62 94.12 346.953 94.56C346.286 94.9867 345.5 95.2 344.593 95.2ZM344.593 94.4C345.086 94.4 345.52 94.22 345.893 93.86C346.28 93.5 346.573 93.0067 346.773 92.38C346.986 91.7533 347.093 91.06 347.093 90.3C347.093 89.54 346.986 88.8467 346.773 88.22C346.573 87.5933 346.28 87.1 345.893 86.74C345.52 86.38 345.086 86.2 344.593 86.2C344.1 86.2 343.66 86.38 343.273 86.74C342.9 87.1 342.606 87.5933 342.393 88.22C342.193 88.8467 342.093 89.54 342.093 90.3C342.093 91.06 342.193 91.7533 342.393 92.38C342.606 93.0067 342.9 93.5 343.273 93.86C343.66 94.22 344.1 94.4 344.593 94.4ZM359.438 95.2C358.278 95.2 357.385 94.74 356.758 93.82C356.145 92.9 355.838 91.7267 355.838 90.3C355.838 88.8733 356.158 87.7 356.798 86.78C357.452 85.86 358.398 85.4 359.638 85.4C360.145 85.4 360.592 85.4533 360.978 85.56C361.365 85.6667 361.752 85.8133 362.138 86V84.2C362.138 83.52 362.045 83.02 361.858 82.7C361.672 82.3667 361.298 82.2 360.738 82.2H360.338V81.8H362.138C362.632 81.8 362.998 81.8667 363.238 82C363.492 82.12 363.672 82.3467 363.778 82.68C363.885 83.0133 363.938 83.52 363.938 84.2V95H362.938L362.238 94.1H362.138C361.845 94.4333 361.498 94.7 361.098 94.9C360.712 95.1 360.158 95.2 359.438 95.2ZM360.038 94.4C360.585 94.4 360.998 94.3 361.278 94.1C361.558 93.9 361.845 93.6 362.138 93.2V86.8C361.738 86.6133 361.392 86.4667 361.098 86.36C360.805 86.2533 360.518 86.2 360.238 86.2C359.385 86.2 358.752 86.5733 358.338 87.32C357.938 88.0667 357.738 89.06 357.738 90.3C357.738 91.5267 357.932 92.52 358.318 93.28C358.705 94.0267 359.278 94.4 360.038 94.4ZM370.487 95.2C369.58 95.2 368.813 94.9867 368.187 94.56C367.56 94.12 367.087 93.5333 366.767 92.8C366.447 92.0533 366.287 91.22 366.287 90.3C366.287 89.3933 366.447 88.5667 366.767 87.82C367.087 87.0733 367.547 86.4867 368.147 86.06C368.76 85.62 369.473 85.4 370.287 85.4C371.633 85.4 372.633 85.78 373.287 86.54C373.953 87.2867 374.287 88.3733 374.287 89.8L374.247 90.6H368.187C368.187 91.72 368.427 92.6333 368.907 93.34C369.387 94.0467 370.047 94.4 370.887 94.4C371.513 94.4 372.04 94.2667 372.467 94C372.907 93.7333 373.313 93.3333 373.687 92.8L374.087 93.1C373.647 93.8333 373.133 94.3667 372.547 94.7C371.96 95.0333 371.273 95.2 370.487 95.2ZM372.387 89.8C372.387 88.6267 372.213 87.7333 371.867 87.12C371.52 86.5067 370.993 86.2 370.287 86.2C369.887 86.2 369.527 86.36 369.207 86.68C368.887 86.9867 368.633 87.4133 368.447 87.96C368.273 88.5067 368.187 89.12 368.187 89.8H372.387ZM379.732 95.2C378.199 95.2 377.166 94.9333 376.632 94.4C376.406 94.1733 376.266 93.92 376.212 93.64C376.159 93.3467 376.132 92.9 376.132 92.3H376.532C376.652 92.9667 376.939 93.4867 377.392 93.86C377.859 94.22 378.506 94.4 379.332 94.4C380.066 94.4 380.612 94.2733 380.972 94.02C381.346 93.7667 381.532 93.4267 381.532 93C381.532 92.6133 381.386 92.28 381.092 92C380.812 91.72 380.359 91.4533 379.732 91.2L378.532 90.7C377.732 90.38 377.132 90.0067 376.732 89.58C376.332 89.1533 376.132 88.6267 376.132 88C376.132 87.1867 376.439 86.5533 377.052 86.1C377.666 85.6333 378.459 85.4 379.432 85.4C380.899 85.4 381.899 85.6667 382.432 86.2C382.659 86.4267 382.799 86.68 382.852 86.96C382.906 87.24 382.932 87.6867 382.932 88.3H382.532C382.426 87.6333 382.146 87.12 381.692 86.76C381.239 86.3867 380.619 86.2 379.832 86.2C379.206 86.2 378.712 86.3333 378.352 86.6C378.006 86.8533 377.832 87.1867 377.832 87.6C377.832 88.2933 378.366 88.86 379.432 89.3L380.632 89.8C381.539 90.1733 382.199 90.5733 382.612 91C383.026 91.4133 383.232 91.9467 383.232 92.6C383.232 93.4133 382.906 94.0533 382.252 94.52C381.599 94.9733 380.759 95.2 379.732 95.2ZM389.178 95.2C388.271 95.2 387.505 94.9867 386.878 94.56C386.251 94.12 385.778 93.5333 385.458 92.8C385.138 92.0533 384.978 91.22 384.978 90.3C384.978 89.3933 385.138 88.5667 385.458 87.82C385.778 87.0733 386.238 86.4867 386.838 86.06C387.451 85.62 388.165 85.4 388.978 85.4C390.325 85.4 391.325 85.78 391.978 86.54C392.645 87.2867 392.978 88.3733 392.978 89.8L392.938 90.6H386.878C386.878 91.72 387.118 92.6333 387.598 93.34C388.078 94.0467 388.738 94.4 389.578 94.4C390.205 94.4 390.731 94.2667 391.158 94C391.598 93.7333 392.005 93.3333 392.378 92.8L392.778 93.1C392.338 93.8333 391.825 94.3667 391.238 94.7C390.651 95.0333 389.965 95.2 389.178 95.2ZM391.078 89.8C391.078 88.6267 390.905 87.7333 390.558 87.12C390.211 86.5067 389.685 86.2 388.978 86.2C388.578 86.2 388.218 86.36 387.898 86.68C387.578 86.9867 387.325 87.4133 387.138 87.96C386.965 88.5067 386.878 89.12 386.878 89.8H391.078ZM395.584 88C395.584 87.32 395.49 86.82 395.304 86.5C395.117 86.1667 394.744 86 394.184 86H393.784V85.6H395.584C396.077 85.6 396.45 85.6667 396.704 85.8C396.97 85.9333 397.164 86.1333 397.284 86.4H397.384C397.664 86.12 398.024 85.8867 398.464 85.7C398.917 85.5 399.424 85.4 399.984 85.4C400.544 85.4 401.024 85.5067 401.424 85.72C401.824 85.92 402.144 86.28 402.384 86.8C402.73 86.36 403.17 86.02 403.704 85.78C404.25 85.5267 404.81 85.4 405.384 85.4C406.237 85.4 406.917 85.6667 407.424 86.2C407.93 86.7333 408.184 87.6667 408.184 89V95H406.384V89C406.384 88.04 406.25 87.3533 405.984 86.94C405.717 86.5133 405.317 86.3 404.784 86.3C404.41 86.3 404.017 86.44 403.604 86.72C403.19 86.9867 402.884 87.28 402.684 87.6C402.75 87.8 402.784 88.2667 402.784 89V95H400.984V89C400.984 88.04 400.85 87.3533 400.584 86.94C400.317 86.5133 399.917 86.3 399.384 86.3C398.677 86.3 398.01 86.6533 397.384 87.36V95H395.584V88ZM411.287 88C411.287 87.32 411.194 86.82 411.007 86.5C410.82 86.1667 410.447 86 409.887 86H409.487V85.6H411.287C411.794 85.6 412.174 85.6733 412.427 85.82C412.694 85.9533 412.88 86.18 412.987 86.5H413.087C413.327 86.1933 413.667 85.9333 414.107 85.72C414.547 85.5067 415.107 85.4 415.787 85.4C416.934 85.4 417.82 85.8667 418.447 86.8C419.074 87.72 419.387 88.8867 419.387 90.3C419.387 91.7267 419.06 92.9 418.407 93.82C417.767 94.74 416.827 95.2 415.587 95.2C415.08 95.2 414.634 95.1467 414.247 95.04C413.86 94.9333 413.474 94.7867 413.087 94.6V98.8H411.287V88ZM414.987 94.4C415.84 94.4 416.467 94.0267 416.867 93.28C417.28 92.5333 417.487 91.54 417.487 90.3C417.487 89.0733 417.294 88.0867 416.907 87.34C416.52 86.58 415.947 86.2 415.187 86.2C414.294 86.2 413.594 86.6 413.087 87.4V93.8C413.487 93.9867 413.834 94.1333 414.127 94.24C414.42 94.3467 414.707 94.4 414.987 94.4ZM425.409 95.2C424.502 95.2 423.735 94.9867 423.109 94.56C422.482 94.12 422.009 93.5333 421.689 92.8C421.369 92.0533 421.209 91.22 421.209 90.3C421.209 89.3933 421.369 88.5667 421.689 87.82C422.009 87.0733 422.469 86.4867 423.069 86.06C423.682 85.62 424.395 85.4 425.209 85.4C426.555 85.4 427.555 85.78 428.209 86.54C428.875 87.2867 429.209 88.3733 429.209 89.8L429.169 90.6H423.109C423.109 91.72 423.349 92.6333 423.829 93.34C424.309 94.0467 424.969 94.4 425.809 94.4C426.435 94.4 426.962 94.2667 427.389 94C427.829 93.7333 428.235 93.3333 428.609 92.8L429.009 93.1C428.569 93.8333 428.055 94.3667 427.469 94.7C426.882 95.0333 426.195 95.2 425.409 95.2ZM427.309 89.8C427.309 88.6267 427.135 87.7333 426.789 87.12C426.442 86.5067 425.915 86.2 425.209 86.2C424.809 86.2 424.449 86.36 424.129 86.68C423.809 86.9867 423.555 87.4133 423.369 87.96C423.195 88.5067 423.109 89.12 423.109 89.8H427.309ZM431.814 88C431.814 87.32 431.721 86.82 431.534 86.5C431.348 86.1667 430.974 86 430.414 86H430.014V85.6H431.814C432.308 85.6 432.681 85.6667 432.934 85.8C433.201 85.9333 433.394 86.1333 433.514 86.4H433.614C433.894 86.12 434.254 85.8867 434.694 85.7C435.148 85.5 435.654 85.4 436.214 85.4C437.214 85.4 438.028 85.6667 438.654 86.2C439.294 86.7333 439.614 87.6667 439.614 89V95H437.814V89C437.814 88.0667 437.601 87.3867 437.174 86.96C436.761 86.52 436.241 86.3 435.614 86.3C434.908 86.3 434.241 86.6533 433.614 87.36V95H431.814V88ZM442.393 84.2C442.393 83.52 442.3 83.02 442.113 82.7C441.926 82.3667 441.553 82.2 440.993 82.2H440.593V81.8H442.393C442.886 81.8 443.253 81.8667 443.493 82C443.746 82.12 443.926 82.3467 444.033 82.68C444.14 83.0133 444.193 83.52 444.193 84.2V86.4C444.473 86.12 444.833 85.8867 445.273 85.7C445.726 85.5 446.233 85.4 446.793 85.4C447.793 85.4 448.606 85.6667 449.233 86.2C449.873 86.7333 450.193 87.6667 450.193 89V95H448.393V89C448.393 88.0667 448.18 87.3867 447.753 86.96C447.34 86.52 446.82 86.3 446.193 86.3C445.486 86.3 444.82 86.6533 444.193 87.36V95H442.393V84.2ZM456.839 95.2C455.932 95.2 455.146 94.9867 454.479 94.56C453.812 94.12 453.306 93.5267 452.959 92.78C452.612 92.0333 452.439 91.2067 452.439 90.3C452.439 89.3933 452.612 88.5667 452.959 87.82C453.306 87.0733 453.812 86.4867 454.479 86.06C455.146 85.62 455.932 85.4 456.839 85.4C457.746 85.4 458.532 85.62 459.199 86.06C459.866 86.4867 460.372 87.0733 460.719 87.82C461.066 88.5667 461.239 89.3933 461.239 90.3C461.239 91.2067 461.066 92.0333 460.719 92.78C460.372 93.5267 459.866 94.12 459.199 94.56C458.532 94.9867 457.746 95.2 456.839 95.2ZM456.839 94.4C457.332 94.4 457.766 94.22 458.139 93.86C458.526 93.5 458.819 93.0067 459.019 92.38C459.232 91.7533 459.339 91.06 459.339 90.3C459.339 89.54 459.232 88.8467 459.019 88.22C458.819 87.5933 458.526 87.1 458.139 86.74C457.766 86.38 457.332 86.2 456.839 86.2C456.346 86.2 455.906 86.38 455.519 86.74C455.146 87.1 454.852 87.5933 454.639 88.22C454.439 88.8467 454.339 89.54 454.339 90.3C454.339 91.06 454.439 91.7533 454.639 92.38C454.852 93.0067 455.146 93.5 455.519 93.86C455.906 94.22 456.346 94.4 456.839 94.4ZM471.685 95.2C470.525 95.2 469.631 94.74 469.005 93.82C468.391 92.9 468.085 91.7267 468.085 90.3C468.085 88.8733 468.405 87.7 469.045 86.78C469.698 85.86 470.645 85.4 471.885 85.4C472.391 85.4 472.838 85.4533 473.225 85.56C473.611 85.6667 473.998 85.8133 474.385 86V84.2C474.385 83.52 474.291 83.02 474.105 82.7C473.918 82.3667 473.545 82.2 472.985 82.2H472.585V81.8H474.385C474.878 81.8 475.245 81.8667 475.485 82C475.738 82.12 475.918 82.3467 476.025 82.68C476.131 83.0133 476.185 83.52 476.185 84.2V95H475.185L474.485 94.1H474.385C474.091 94.4333 473.745 94.7 473.345 94.9C472.958 95.1 472.405 95.2 471.685 95.2ZM472.285 94.4C472.831 94.4 473.245 94.3 473.525 94.1C473.805 93.9 474.091 93.6 474.385 93.2V86.8C473.985 86.6133 473.638 86.4667 473.345 86.36C473.051 86.2533 472.765 86.2 472.485 86.2C471.631 86.2 470.998 86.5733 470.585 87.32C470.185 88.0667 469.985 89.06 469.985 90.3C469.985 91.5267 470.178 92.52 470.565 93.28C470.951 94.0267 471.525 94.4 472.285 94.4ZM481.313 95.2C480.886 95.2 480.453 95.1133 480.013 94.94C479.573 94.7533 479.193 94.4533 478.873 94.04C478.566 93.6267 478.413 93.08 478.413 92.4C478.413 91.3867 478.879 90.6667 479.813 90.24C480.759 89.8133 481.993 89.6 483.513 89.6H484.113C484.113 88.2933 483.933 87.4 483.573 86.92C483.213 86.44 482.693 86.2 482.013 86.2C481.413 86.2 480.933 86.3267 480.573 86.58C480.213 86.8333 479.959 87.2733 479.813 87.9H478.913C478.913 87.4467 478.939 87.0933 478.993 86.84C479.046 86.5733 479.186 86.3267 479.413 86.1C479.653 85.86 480.046 85.6867 480.593 85.58C481.153 85.46 481.759 85.4 482.413 85.4C483.493 85.4 484.346 85.6933 484.973 86.28C485.599 86.8533 485.913 87.96 485.913 89.6V95H484.913L484.213 94.1H484.113C483.873 94.4067 483.519 94.6667 483.053 94.88C482.586 95.0933 482.006 95.2 481.313 95.2ZM482.213 94.3C482.653 94.3 483.019 94.1933 483.313 93.98C483.606 93.7667 483.873 93.4733 484.113 93.1V90.4H483.513C482.526 90.4 481.746 90.5867 481.173 90.96C480.599 91.32 480.313 91.8 480.313 92.4C480.313 93.0133 480.493 93.4867 480.853 93.82C481.226 94.14 481.679 94.3 482.213 94.3ZM491.842 95.2C490.308 95.2 489.275 94.9333 488.742 94.4C488.515 94.1733 488.375 93.92 488.322 93.64C488.268 93.3467 488.242 92.9 488.242 92.3H488.642C488.762 92.9667 489.048 93.4867 489.502 93.86C489.968 94.22 490.615 94.4 491.442 94.4C492.175 94.4 492.722 94.2733 493.082 94.02C493.455 93.7667 493.642 93.4267 493.642 93C493.642 92.6133 493.495 92.28 493.202 92C492.922 91.72 492.468 91.4533 491.842 91.2L490.642 90.7C489.842 90.38 489.242 90.0067 488.842 89.58C488.442 89.1533 488.242 88.6267 488.242 88C488.242 87.1867 488.548 86.5533 489.162 86.1C489.775 85.6333 490.568 85.4 491.542 85.4C493.008 85.4 494.008 85.6667 494.542 86.2C494.768 86.4267 494.908 86.68 494.962 86.96C495.015 87.24 495.042 87.6867 495.042 88.3H494.642C494.535 87.6333 494.255 87.12 493.802 86.76C493.348 86.3867 492.728 86.2 491.942 86.2C491.315 86.2 490.822 86.3333 490.462 86.6C490.115 86.8533 489.942 87.1867 489.942 87.6C489.942 88.2933 490.475 88.86 491.542 89.3L492.742 89.8C493.648 90.1733 494.308 90.5733 494.722 91C495.135 91.4133 495.342 91.9467 495.342 92.6C495.342 93.4133 495.015 94.0533 494.362 94.52C493.708 94.9733 492.868 95.2 491.842 95.2ZM505.768 95.2C504.234 95.2 503.201 94.9333 502.668 94.4C502.441 94.1733 502.301 93.92 502.248 93.64C502.194 93.3467 502.168 92.9 502.168 92.3H502.568C502.688 92.9667 502.974 93.4867 503.428 93.86C503.894 94.22 504.541 94.4 505.368 94.4C506.101 94.4 506.648 94.2733 507.008 94.02C507.381 93.7667 507.568 93.4267 507.568 93C507.568 92.6133 507.421 92.28 507.128 92C506.848 91.72 506.394 91.4533 505.768 91.2L504.568 90.7C503.768 90.38 503.168 90.0067 502.768 89.58C502.368 89.1533 502.168 88.6267 502.168 88C502.168 87.1867 502.474 86.5533 503.088 86.1C503.701 85.6333 504.494 85.4 505.468 85.4C506.934 85.4 507.934 85.6667 508.468 86.2C508.694 86.4267 508.834 86.68 508.888 86.96C508.941 87.24 508.968 87.6867 508.968 88.3H508.568C508.461 87.6333 508.181 87.12 507.728 86.76C507.274 86.3867 506.654 86.2 505.868 86.2C505.241 86.2 504.748 86.3333 504.388 86.6C504.041 86.8533 503.868 87.1867 503.868 87.6C503.868 88.2933 504.401 88.86 505.468 89.3L506.668 89.8C507.574 90.1733 508.234 90.5733 508.648 91C509.061 91.4133 509.268 91.9467 509.268 92.6C509.268 93.4133 508.941 94.0533 508.288 94.52C507.634 94.9733 506.794 95.2 505.768 95.2ZM514.973 95.2C513.973 95.2 513.153 94.9333 512.513 94.4C511.887 93.8667 511.573 92.9333 511.573 91.6V88C511.573 87.32 511.48 86.82 511.293 86.5C511.107 86.1667 510.733 86 510.173 86H509.973V85.6H511.573C512.067 85.6 512.433 85.6667 512.673 85.8C512.927 85.92 513.107 86.1467 513.213 86.48C513.32 86.8133 513.373 87.32 513.373 88V91.6C513.373 92.5333 513.58 93.22 513.993 93.66C514.42 94.0867 514.947 94.3 515.573 94.3C516.28 94.3 516.947 93.9467 517.573 93.24V85.6H519.373V95H518.373L517.673 94.2H517.573C517.293 94.48 516.927 94.72 516.473 94.92C516.033 95.1067 515.533 95.2 514.973 95.2ZM524.496 95.2C524.07 95.2 523.636 95.1133 523.196 94.94C522.756 94.7533 522.376 94.4533 522.056 94.04C521.75 93.6267 521.596 93.08 521.596 92.4C521.596 91.3867 522.063 90.6667 522.996 90.24C523.943 89.8133 525.176 89.6 526.696 89.6H527.296C527.296 88.2933 527.116 87.4 526.756 86.92C526.396 86.44 525.876 86.2 525.196 86.2C524.596 86.2 524.116 86.3267 523.756 86.58C523.396 86.8333 523.143 87.2733 522.996 87.9H522.096C522.096 87.4467 522.123 87.0933 522.176 86.84C522.23 86.5733 522.37 86.3267 522.596 86.1C522.836 85.86 523.23 85.6867 523.776 85.58C524.336 85.46 524.943 85.4 525.596 85.4C526.676 85.4 527.53 85.6933 528.156 86.28C528.783 86.8533 529.096 87.96 529.096 89.6V95H528.096L527.396 94.1H527.296C527.056 94.4067 526.703 94.6667 526.236 94.88C525.77 95.0933 525.19 95.2 524.496 95.2ZM525.396 94.3C525.836 94.3 526.203 94.1933 526.496 93.98C526.79 93.7667 527.056 93.4733 527.296 93.1V90.4H526.696C525.71 90.4 524.93 90.5867 524.356 90.96C523.783 91.32 523.496 91.8 523.496 92.4C523.496 93.0133 523.676 93.4867 524.036 93.82C524.41 94.14 524.863 94.3 525.396 94.3ZM535.025 95.2C533.492 95.2 532.459 94.9333 531.925 94.4C531.699 94.1733 531.559 93.92 531.505 93.64C531.452 93.3467 531.425 92.9 531.425 92.3H531.825C531.945 92.9667 532.232 93.4867 532.685 93.86C533.152 94.22 533.799 94.4 534.625 94.4C535.359 94.4 535.905 94.2733 536.265 94.02C536.639 93.7667 536.825 93.4267 536.825 93C536.825 92.6133 536.679 92.28 536.385 92C536.105 91.72 535.652 91.4533 535.025 91.2L533.825 90.7C533.025 90.38 532.425 90.0067 532.025 89.58C531.625 89.1533 531.425 88.6267 531.425 88C531.425 87.1867 531.732 86.5533 532.345 86.1C532.959 85.6333 533.752 85.4 534.725 85.4C536.192 85.4 537.192 85.6667 537.725 86.2C537.952 86.4267 538.092 86.68 538.145 86.96C538.199 87.24 538.225 87.6867 538.225 88.3H537.825C537.719 87.6333 537.439 87.12 536.985 86.76C536.532 86.3867 535.912 86.2 535.125 86.2C534.499 86.2 534.005 86.3333 533.645 86.6C533.299 86.8533 533.125 87.1867 533.125 87.6C533.125 88.2933 533.659 88.86 534.725 89.3L535.925 89.8C536.832 90.1733 537.492 90.5733 537.905 91C538.319 91.4133 538.525 91.9467 538.525 92.6C538.525 93.4133 538.199 94.0533 537.545 94.52C536.892 94.9733 536.052 95.2 535.025 95.2ZM549.471 95.2C548.564 95.2 547.798 94.9867 547.171 94.56C546.544 94.12 546.071 93.5333 545.751 92.8C545.431 92.0533 545.271 91.22 545.271 90.3C545.271 89.3933 545.431 88.5667 545.751 87.82C546.071 87.0733 546.531 86.4867 547.131 86.06C547.744 85.62 548.458 85.4 549.271 85.4C550.618 85.4 551.618 85.78 552.271 86.54C552.938 87.2867 553.271 88.3733 553.271 89.8L553.231 90.6H547.171C547.171 91.72 547.411 92.6333 547.891 93.34C548.371 94.0467 549.031 94.4 549.871 94.4C550.498 94.4 551.024 94.2667 551.451 94C551.891 93.7333 552.298 93.3333 552.671 92.8L553.071 93.1C552.631 93.8333 552.118 94.3667 551.531 94.7C550.944 95.0333 550.258 95.2 549.471 95.2ZM551.371 89.8C551.371 88.6267 551.198 87.7333 550.851 87.12C550.504 86.5067 549.978 86.2 549.271 86.2C548.871 86.2 548.511 86.36 548.191 86.68C547.871 86.9867 547.618 87.4133 547.431 87.96C547.258 88.5067 547.171 89.12 547.171 89.8H551.371ZM555.877 88C555.877 87.32 555.783 86.82 555.597 86.5C555.41 86.1667 555.037 86 554.477 86H554.077V85.6H555.877C556.37 85.6 556.743 85.6667 556.997 85.8C557.263 85.9333 557.457 86.1333 557.577 86.4H557.677C557.957 86.12 558.317 85.8867 558.757 85.7C559.21 85.5 559.717 85.4 560.277 85.4C561.277 85.4 562.09 85.6667 562.717 86.2C563.357 86.7333 563.677 87.6667 563.677 89V95H561.877V89C561.877 88.0667 561.663 87.3867 561.237 86.96C560.823 86.52 560.303 86.3 559.677 86.3C558.97 86.3 558.303 86.6533 557.677 87.36V95H555.877V88ZM569.236 95.2C568.489 95.2 567.902 94.9867 567.476 94.56C567.049 94.1333 566.836 93.48 566.836 92.6V86.4H565.436V85.6H566.836V83.8L567.836 82.6H568.636V85.6H571.036V86.4H568.636V92.6C568.636 93.8 569.102 94.4 570.036 94.4C570.356 94.4 570.622 94.3667 570.836 94.3C571.062 94.2333 571.296 94.1333 571.536 94L571.736 94.4C571.429 94.6267 571.089 94.82 570.716 94.98C570.342 95.1267 569.849 95.2 569.236 95.2ZM573.373 88C573.373 87.32 573.28 86.82 573.093 86.5C572.907 86.1667 572.533 86 571.973 86H571.773V85.6H573.373C573.88 85.6 574.26 85.6733 574.513 85.82C574.78 85.9533 574.967 86.18 575.073 86.5H575.173C575.413 86.1933 575.733 85.9333 576.133 85.72C576.547 85.5067 577.027 85.4 577.573 85.4C578.107 85.4 578.507 85.5 578.773 85.7C579 85.8733 579.233 86.1733 579.473 86.6L578.673 87.2C578.527 87 578.313 86.8533 578.033 86.76C577.753 86.6533 577.433 86.6 577.073 86.6C576.673 86.6 576.307 86.6933 575.973 86.88C575.64 87.0533 575.373 87.2933 575.173 87.6V95H573.373V88ZM584.647 95.2C583.74 95.2 582.974 94.9867 582.347 94.56C581.72 94.12 581.247 93.5333 580.927 92.8C580.607 92.0533 580.447 91.22 580.447 90.3C580.447 89.3933 580.607 88.5667 580.927 87.82C581.247 87.0733 581.707 86.4867 582.307 86.06C582.92 85.62 583.634 85.4 584.447 85.4C585.794 85.4 586.794 85.78 587.447 86.54C588.114 87.2867 588.447 88.3733 588.447 89.8L588.407 90.6H582.347C582.347 91.72 582.587 92.6333 583.067 93.34C583.547 94.0467 584.207 94.4 585.047 94.4C585.674 94.4 586.2 94.2667 586.627 94C587.067 93.7333 587.474 93.3333 587.847 92.8L588.247 93.1C587.807 93.8333 587.294 94.3667 586.707 94.7C586.12 95.0333 585.434 95.2 584.647 95.2ZM586.547 89.8C586.547 88.6267 586.374 87.7333 586.027 87.12C585.68 86.5067 585.154 86.2 584.447 86.2C584.047 86.2 583.687 86.36 583.367 86.68C583.047 86.9867 582.794 87.4133 582.607 87.96C582.434 88.5067 582.347 89.12 582.347 89.8H586.547ZM594.233 99C592.886 99 591.813 98.7533 591.013 98.26C590.226 97.7667 589.833 96.98 589.833 95.9C589.833 95.2867 590.039 94.7533 590.453 94.3C590.866 93.8467 591.393 93.5133 592.033 93.3C591.499 93.0067 591.233 92.6067 591.233 92.1C591.233 91.8333 591.293 91.6267 591.413 91.48C591.533 91.3333 591.706 91.1733 591.933 91C591.506 90.7867 591.146 90.4533 590.853 90C590.573 89.5467 590.433 89.0133 590.433 88.4C590.433 86.4 591.699 85.4 594.233 85.4H597.933V85.9L596.633 86.1V86.2C597.046 86.4133 597.379 86.7133 597.633 87.1C597.899 87.4733 598.033 87.9067 598.033 88.4C598.033 90.4 596.766 91.4 594.233 91.4C592.833 91.4 592.133 91.6333 592.133 92.1C592.133 92.5667 592.833 92.8 594.233 92.8C595.526 92.8 596.579 93.06 597.393 93.58C598.219 94.0867 598.633 94.86 598.633 95.9C598.633 96.98 598.233 97.7667 597.433 98.26C596.646 98.7533 595.579 99 594.233 99ZM594.233 90.7C594.833 90.7 595.313 90.52 595.673 90.16C596.046 89.7867 596.233 89.2 596.233 88.4C596.233 87.64 596.046 87.0667 595.673 86.68C595.313 86.2933 594.833 86.1 594.233 86.1C593.633 86.1 593.146 86.2867 592.773 86.66C592.413 87.02 592.233 87.6 592.233 88.4C592.233 89.2 592.413 89.7867 592.773 90.16C593.146 90.52 593.633 90.7 594.233 90.7ZM594.233 98.2C595.033 98.2 595.666 98.0067 596.133 97.62C596.599 97.2467 596.833 96.6733 596.833 95.9C596.833 94.5667 596.033 93.8 594.433 93.6L593.333 93.5C592.786 93.7133 592.366 94.0133 592.073 94.4C591.779 94.7867 591.633 95.2867 591.633 95.9C591.633 96.6733 591.866 97.2467 592.333 97.62C592.799 98.0067 593.433 98.2 594.233 98.2ZM602.836 95.2C602.41 95.2 601.976 95.1133 601.536 94.94C601.096 94.7533 600.716 94.4533 600.396 94.04C600.09 93.6267 599.936 93.08 599.936 92.4C599.936 91.3867 600.403 90.6667 601.336 90.24C602.283 89.8133 603.516 89.6 605.036 89.6H605.636C605.636 88.2933 605.456 87.4 605.096 86.92C604.736 86.44 604.216 86.2 603.536 86.2C602.936 86.2 602.456 86.3267 602.096 86.58C601.736 86.8333 601.483 87.2733 601.336 87.9H600.436C600.436 87.4467 600.463 87.0933 600.516 86.84C600.57 86.5733 600.71 86.3267 600.936 86.1C601.176 85.86 601.57 85.6867 602.116 85.58C602.676 85.46 603.283 85.4 603.936 85.4C605.016 85.4 605.87 85.6933 606.496 86.28C607.123 86.8533 607.436 87.96 607.436 89.6V95H606.436L605.736 94.1H605.636C605.396 94.4067 605.043 94.6667 604.576 94.88C604.11 95.0933 603.53 95.2 602.836 95.2ZM603.736 94.3C604.176 94.3 604.543 94.1933 604.836 93.98C605.13 93.7667 605.396 93.4733 605.636 93.1V90.4H605.036C604.05 90.4 603.27 90.5867 602.696 90.96C602.123 91.32 601.836 91.8 601.836 92.4C601.836 93.0133 602.016 93.4867 602.376 93.82C602.75 94.14 603.203 94.3 603.736 94.3ZM613.365 95.2C611.832 95.2 610.798 94.9333 610.265 94.4C610.038 94.1733 609.898 93.92 609.845 93.64C609.792 93.3467 609.765 92.9 609.765 92.3H610.165C610.285 92.9667 610.572 93.4867 611.025 93.86C611.492 94.22 612.138 94.4 612.965 94.4C613.698 94.4 614.245 94.2733 614.605 94.02C614.978 93.7667 615.165 93.4267 615.165 93C615.165 92.6133 615.018 92.28 614.725 92C614.445 91.72 613.992 91.4533 613.365 91.2L612.165 90.7C611.365 90.38 610.765 90.0067 610.365 89.58C609.965 89.1533 609.765 88.6267 609.765 88C609.765 87.1867 610.072 86.5533 610.685 86.1C611.298 85.6333 612.092 85.4 613.065 85.4C614.532 85.4 615.532 85.6667 616.065 86.2C616.292 86.4267 616.432 86.68 616.485 86.96C616.538 87.24 616.565 87.6867 616.565 88.3H616.165C616.058 87.6333 615.778 87.12 615.325 86.76C614.872 86.3867 614.252 86.2 613.465 86.2C612.838 86.2 612.345 86.3333 611.985 86.6C611.638 86.8533 611.465 87.1867 611.465 87.6C611.465 88.2933 611.998 88.86 613.065 89.3L614.265 89.8C615.172 90.1733 615.832 90.5733 616.245 91C616.658 91.4133 616.865 91.9467 616.865 92.6C616.865 93.4133 616.538 94.0533 615.885 94.52C615.232 94.9733 614.392 95.2 613.365 95.2Z" fill="black"/>
<g filter="url(#filter1_d_201_3)">
<rect x="218" y="129" width="475.333" height="277" rx="20" fill="white"/>
</g>
<line x1="221" y1="278.5" x2="693" y2="278.5" stroke="#D9D9D9"/>
<g filter="url(#filter2_d_201_3)">
<rect x="218" y="129" width="475.333" height="277" rx="20" fill="white"/>
</g>
<line x1="221" y1="278.5" x2="693" y2="278.5" stroke="#D9D9D9"/>
<g filter="url(#filter3_d_201_3)">
<rect x="218" y="439" width="966" height="630" rx="20" fill="white"/>
</g>
<g filter="url(#filter4_d_201_3)">
<rect x="1199" y="439" width="475" height="630" rx="20" fill="white"/>
</g>
<path d="M660.9 162.103L666 157.003L671.1 162.103L672.103 161.1L667.003 156L672.103 150.9L671.1 149.897L666 154.997L660.9 149.897L659.897 150.9L664.997 156L659.897 161.1L660.9 162.103ZM666.004 168.75C664.242 168.75 662.584 168.416 661.032 167.747C659.48 167.077 658.13 166.169 656.981 165.021C655.833 163.875 654.924 162.526 654.254 160.975C653.585 159.425 653.25 157.768 653.25 156.004C653.25 154.242 653.584 152.584 654.253 151.032C654.923 149.48 655.831 148.13 656.979 146.981C658.125 145.833 659.474 144.924 661.025 144.254C662.575 143.585 664.232 143.25 665.996 143.25C667.758 143.25 669.416 143.584 670.968 144.253C672.52 144.923 673.87 145.831 675.018 146.979C676.167 148.125 677.076 149.474 677.746 151.025C678.415 152.575 678.75 154.232 678.75 155.996C678.75 157.758 678.416 159.416 677.747 160.968C677.077 162.52 676.169 163.87 675.021 165.018C673.875 166.167 672.526 167.076 670.975 167.746C669.425 168.415 667.768 168.75 666.004 168.75Z" fill="#3A3A3A"/>
<path d="M241.69 158.955V158.379C241.69 157.982 241.772 157.618 241.935 157.287C242.102 156.953 242.344 156.687 242.66 156.488C242.979 156.286 243.366 156.185 243.821 156.185C244.283 156.185 244.67 156.286 244.982 156.488C245.295 156.687 245.531 156.953 245.691 157.287C245.85 157.618 245.93 157.982 245.93 158.379V158.955C245.93 159.352 245.849 159.718 245.685 160.052C245.526 160.382 245.288 160.648 244.972 160.851C244.659 161.05 244.276 161.149 243.821 161.149C243.359 161.149 242.971 161.05 242.654 160.851C242.338 160.648 242.099 160.382 241.935 160.052C241.772 159.718 241.69 159.352 241.69 158.955ZM242.777 158.379V158.955C242.777 159.285 242.855 159.581 243.011 159.844C243.168 160.103 243.438 160.233 243.821 160.233C244.194 160.233 244.457 160.103 244.609 159.844C244.766 159.581 244.844 159.285 244.844 158.955V158.379C244.844 158.049 244.769 157.754 244.62 157.495C244.471 157.232 244.205 157.101 243.821 157.101C243.448 157.101 243.18 157.232 243.017 157.495C242.857 157.754 242.777 158.049 242.777 158.379ZM236.257 152.712V152.136C236.257 151.739 236.339 151.375 236.502 151.044C236.669 150.711 236.911 150.444 237.227 150.245C237.546 150.043 237.933 149.942 238.388 149.942C238.849 149.942 239.237 150.043 239.549 150.245C239.862 150.444 240.098 150.711 240.257 151.044C240.417 151.375 240.497 151.739 240.497 152.136V152.712C240.497 153.109 240.415 153.475 240.252 153.809C240.092 154.139 239.854 154.406 239.538 154.608C239.226 154.807 238.842 154.906 238.388 154.906C237.926 154.906 237.537 154.807 237.221 154.608C236.905 154.406 236.665 154.139 236.502 153.809C236.339 153.475 236.257 153.109 236.257 152.712ZM237.344 152.136V152.712C237.344 153.042 237.422 153.338 237.578 153.601C237.734 153.86 238.004 153.99 238.388 153.99C238.761 153.99 239.023 153.86 239.176 153.601C239.332 153.338 239.411 153.042 239.411 152.712V152.136C239.411 151.806 239.336 151.511 239.187 151.252C239.038 150.989 238.771 150.858 238.388 150.858C238.015 150.858 237.747 150.989 237.583 151.252C237.424 151.511 237.344 151.806 237.344 152.136ZM236.662 161L244.162 150.091H245.376L237.876 161H236.662ZM256.094 161H252.727V150.091H256.243C257.301 150.091 258.207 150.309 258.96 150.746C259.712 151.179 260.289 151.803 260.691 152.616C261.092 153.425 261.293 154.395 261.293 155.524C261.293 156.661 261.09 157.639 260.685 158.459C260.281 159.276 259.691 159.904 258.917 160.345C258.143 160.782 257.202 161 256.094 161ZM254.048 159.828H256.009C256.911 159.828 257.658 159.654 258.251 159.306C258.844 158.958 259.286 158.463 259.577 157.82C259.869 157.177 260.014 156.412 260.014 155.524C260.014 154.643 259.87 153.885 259.583 153.25C259.295 152.61 258.865 152.12 258.294 151.779C257.722 151.435 257.01 151.263 256.158 151.263H254.048V159.828ZM263.509 161V150.091H270.092V151.263H264.83V154.949H269.751V156.121H264.83V159.828H270.178V161H263.509ZM285.471 153.5H284.15C284.071 153.12 283.935 152.786 283.739 152.499C283.548 152.211 283.313 151.969 283.036 151.774C282.763 151.575 282.459 151.426 282.125 151.327C281.792 151.227 281.444 151.178 281.081 151.178C280.421 151.178 279.822 151.344 279.286 151.678C278.754 152.012 278.329 152.504 278.013 153.154C277.701 153.804 277.544 154.601 277.544 155.545C277.544 156.49 277.701 157.287 278.013 157.937C278.329 158.587 278.754 159.079 279.286 159.413C279.822 159.746 280.421 159.913 281.081 159.913C281.444 159.913 281.792 159.864 282.125 159.764C282.459 159.665 282.763 159.517 283.036 159.322C283.313 159.123 283.548 158.88 283.739 158.592C283.935 158.301 284.071 157.967 284.15 157.591H285.471C285.371 158.148 285.19 158.647 284.927 159.088C284.664 159.528 284.338 159.903 283.947 160.212C283.556 160.517 283.118 160.75 282.631 160.909C282.148 161.069 281.632 161.149 281.081 161.149C280.151 161.149 279.324 160.922 278.599 160.467C277.875 160.013 277.305 159.366 276.889 158.528C276.474 157.69 276.266 156.696 276.266 155.545C276.266 154.395 276.474 153.401 276.889 152.562C277.305 151.724 277.875 151.078 278.599 150.624C279.324 150.169 280.151 149.942 281.081 149.942C281.632 149.942 282.148 150.022 282.631 150.181C283.118 150.341 283.556 150.576 283.947 150.885C284.338 151.19 284.664 151.563 284.927 152.003C285.19 152.44 285.371 152.939 285.471 153.5ZM288.053 161H286.668L290.673 150.091H292.037L296.043 161H294.658L291.398 151.817H291.313L288.053 161ZM288.564 156.739H294.146V157.911H288.564V156.739ZM306.392 150.091V161H305.114L299.169 152.435H299.063V161H297.742V150.091H299.02L304.986 158.678H305.093V150.091H306.392ZM317.814 153.5H316.493C316.415 153.12 316.278 152.786 316.083 152.499C315.891 152.211 315.657 151.969 315.38 151.774C315.107 151.575 314.803 151.426 314.469 151.327C314.135 151.227 313.787 151.178 313.425 151.178C312.765 151.178 312.166 151.344 311.63 151.678C311.097 152.012 310.673 152.504 310.357 153.154C310.044 153.804 309.888 154.601 309.888 155.545C309.888 156.49 310.044 157.287 310.357 157.937C310.673 158.587 311.097 159.079 311.63 159.413C312.166 159.746 312.765 159.913 313.425 159.913C313.787 159.913 314.135 159.864 314.469 159.764C314.803 159.665 315.107 159.517 315.38 159.322C315.657 159.123 315.891 158.88 316.083 158.592C316.278 158.301 316.415 157.967 316.493 157.591H317.814C317.715 158.148 317.534 158.647 317.271 159.088C317.008 159.528 316.681 159.903 316.291 160.212C315.9 160.517 315.462 160.75 314.975 160.909C314.492 161.069 313.975 161.149 313.425 161.149C312.495 161.149 311.667 160.922 310.943 160.467C310.218 160.013 309.648 159.366 309.233 158.528C308.817 157.69 308.61 156.696 308.61 155.545C308.61 154.395 308.817 153.401 309.233 152.562C309.648 151.724 310.218 151.078 310.943 150.624C311.667 150.169 312.495 149.942 313.425 149.942C313.975 149.942 314.492 150.022 314.975 150.181C315.462 150.341 315.9 150.576 316.291 150.885C316.681 151.19 317.008 151.563 317.271 152.003C317.534 152.44 317.715 152.939 317.814 153.5ZM319.949 161V150.091H326.533V151.263H321.27V154.949H326.192V156.121H321.27V159.828H326.618V161H319.949ZM328.914 161V150.091H330.235V159.828H335.306V161H328.914ZM338.487 161H337.102L341.108 150.091H342.472L346.477 161H345.092L341.832 151.817H341.747L338.487 161ZM338.999 156.739H344.581V157.911H338.999V156.739ZM348.176 150.091H349.753L353.461 159.146H353.588L357.296 150.091H358.873V161H357.637V152.712H357.53L354.121 161H352.928L349.519 152.712H349.412V161H348.176V150.091ZM361.521 161V150.091H368.105V151.263H362.842V154.949H367.764V156.121H362.842V159.828H368.19V161H361.521ZM379.137 150.091V161H377.858L371.914 152.435H371.807V161H370.486V150.091H371.764L377.73 158.678H377.837V150.091H379.137ZM381.183 151.263V150.091H389.365V151.263H385.935V161H384.614V151.263H381.183ZM400.154 155.545C400.154 156.696 399.947 157.69 399.531 158.528C399.116 159.366 398.546 160.013 397.821 160.467C397.097 160.922 396.27 161.149 395.339 161.149C394.409 161.149 393.581 160.922 392.857 160.467C392.132 160.013 391.563 159.366 391.147 158.528C390.732 157.69 390.524 156.696 390.524 155.545C390.524 154.395 390.732 153.401 391.147 152.562C391.563 151.724 392.132 151.078 392.857 150.624C393.581 150.169 394.409 149.942 395.339 149.942C396.27 149.942 397.097 150.169 397.821 150.624C398.546 151.078 399.116 151.724 399.531 152.562C399.947 153.401 400.154 154.395 400.154 155.545ZM398.876 155.545C398.876 154.601 398.718 153.804 398.402 153.154C398.089 152.504 397.665 152.012 397.129 151.678C396.596 151.344 396 151.178 395.339 151.178C394.679 151.178 394.08 151.344 393.544 151.678C393.011 152.012 392.587 152.504 392.271 153.154C391.958 153.804 391.802 154.601 391.802 155.545C391.802 156.49 391.958 157.287 392.271 157.937C392.587 158.587 393.011 159.079 393.544 159.413C394.08 159.746 394.679 159.913 395.339 159.913C396 159.913 396.596 159.746 397.129 159.413C397.665 159.079 398.089 158.587 398.402 157.937C398.718 157.287 398.876 156.49 398.876 155.545Z" fill="black"/>
<path d="M238.136 243V236.909L254.295 221.068C255.841 219.508 257.129 218.121 258.159 216.909C259.189 215.697 259.962 214.523 260.477 213.386C260.992 212.25 261.25 211.038 261.25 209.75C261.25 208.28 260.917 207.023 260.25 205.977C259.583 204.917 258.667 204.098 257.5 203.523C256.333 202.947 255.008 202.659 253.523 202.659C251.992 202.659 250.652 202.977 249.5 203.614C248.348 204.235 247.455 205.121 246.818 206.273C246.197 207.424 245.886 208.795 245.886 210.386H237.864C237.864 207.432 238.538 204.864 239.886 202.682C241.235 200.5 243.091 198.811 245.455 197.614C247.833 196.417 250.561 195.818 253.636 195.818C256.758 195.818 259.5 196.402 261.864 197.568C264.227 198.735 266.061 200.333 267.364 202.364C268.682 204.394 269.341 206.712 269.341 209.318C269.341 211.061 269.008 212.773 268.341 214.455C267.674 216.136 266.5 218 264.818 220.045C263.152 222.091 260.811 224.568 257.795 227.477L249.773 235.636V235.955H270.045V243H238.136ZM294.591 243.636C291.318 243.636 288.409 243.076 285.864 241.955C283.333 240.833 281.333 239.273 279.864 237.273C278.394 235.273 277.614 232.962 277.523 230.341H286.068C286.144 231.598 286.561 232.697 287.318 233.636C288.076 234.561 289.083 235.28 290.341 235.795C291.598 236.311 293.008 236.568 294.568 236.568C296.235 236.568 297.712 236.28 299 235.705C300.288 235.114 301.295 234.295 302.023 233.25C302.75 232.205 303.106 231 303.091 229.636C303.106 228.227 302.742 226.985 302 225.909C301.258 224.833 300.182 223.992 298.773 223.386C297.379 222.78 295.697 222.477 293.727 222.477H289.614V215.977H293.727C295.348 215.977 296.765 215.697 297.977 215.136C299.205 214.576 300.167 213.788 300.864 212.773C301.561 211.742 301.902 210.553 301.886 209.205C301.902 207.886 301.606 206.742 301 205.773C300.409 204.788 299.568 204.023 298.477 203.477C297.402 202.932 296.136 202.659 294.682 202.659C293.258 202.659 291.939 202.917 290.727 203.432C289.515 203.947 288.538 204.682 287.795 205.636C287.053 206.576 286.659 207.697 286.614 209H278.5C278.561 206.394 279.311 204.106 280.75 202.136C282.205 200.152 284.144 198.606 286.568 197.5C288.992 196.379 291.712 195.818 294.727 195.818C297.833 195.818 300.53 196.402 302.818 197.568C305.121 198.72 306.902 200.273 308.159 202.227C309.417 204.182 310.045 206.341 310.045 208.705C310.061 211.326 309.288 213.523 307.727 215.295C306.182 217.068 304.152 218.227 301.636 218.773V219.136C304.909 219.591 307.417 220.803 309.159 222.773C310.917 224.727 311.788 227.159 311.773 230.068C311.773 232.674 311.03 235.008 309.545 237.068C308.076 239.114 306.045 240.72 303.455 241.886C300.879 243.053 297.924 243.636 294.591 243.636ZM327.949 236.636L327.653 239.136C327.441 241.045 327.063 242.985 326.517 244.955C325.987 246.939 325.426 248.765 324.835 250.432C324.244 252.098 323.767 253.409 323.403 254.364H317.858C318.07 253.439 318.358 252.182 318.722 250.591C319.1 249 319.464 247.212 319.812 245.227C320.161 243.242 320.396 241.227 320.517 239.182L320.676 236.636H327.949ZM352.693 243.636C349.663 243.636 346.951 243.068 344.557 241.932C342.163 240.78 340.261 239.205 338.852 237.205C337.458 235.205 336.716 232.917 336.625 230.341H344.807C344.958 232.25 345.784 233.811 347.284 235.023C348.784 236.22 350.587 236.818 352.693 236.818C354.345 236.818 355.814 236.439 357.102 235.682C358.39 234.924 359.405 233.871 360.148 232.523C360.89 231.174 361.254 229.636 361.239 227.909C361.254 226.152 360.883 224.591 360.125 223.227C359.367 221.864 358.33 220.795 357.011 220.023C355.693 219.235 354.178 218.841 352.466 218.841C351.072 218.826 349.701 219.083 348.352 219.614C347.004 220.144 345.936 220.841 345.148 221.705L337.534 220.455L339.966 196.455H366.966V203.5H346.943L345.602 215.841H345.875C346.739 214.826 347.958 213.985 349.534 213.318C351.11 212.636 352.837 212.295 354.716 212.295C357.534 212.295 360.049 212.962 362.261 214.295C364.473 215.614 366.216 217.432 367.489 219.75C368.761 222.068 369.398 224.72 369.398 227.705C369.398 230.78 368.686 233.523 367.261 235.932C365.852 238.326 363.89 240.212 361.375 241.591C358.875 242.955 355.981 243.636 352.693 243.636ZM401.898 234.273V231.818C401.898 230.015 402.277 228.356 403.034 226.841C403.807 225.326 404.928 224.106 406.398 223.182C407.867 222.258 409.648 221.795 411.739 221.795C413.89 221.795 415.693 222.258 417.148 223.182C418.602 224.091 419.701 225.303 420.443 226.818C421.201 228.333 421.58 230 421.58 231.818V234.273C421.58 236.076 421.201 237.735 420.443 239.25C419.686 240.765 418.572 241.985 417.102 242.909C415.648 243.833 413.86 244.295 411.739 244.295C409.617 244.295 407.822 243.833 406.352 242.909C404.883 241.985 403.769 240.765 403.011 239.25C402.269 237.735 401.898 236.076 401.898 234.273ZM407.83 231.818V234.273C407.83 235.47 408.117 236.568 408.693 237.568C409.269 238.568 410.284 239.068 411.739 239.068C413.208 239.068 414.216 238.576 414.761 237.591C415.322 236.591 415.602 235.485 415.602 234.273V231.818C415.602 230.606 415.337 229.5 414.807 228.5C414.277 227.485 413.254 226.977 411.739 226.977C410.314 226.977 409.307 227.485 408.716 228.5C408.125 229.5 407.83 230.606 407.83 231.818ZM378.239 207.636V205.182C378.239 203.364 378.625 201.697 379.398 200.182C380.17 198.667 381.292 197.455 382.761 196.545C384.231 195.621 386.011 195.159 388.102 195.159C390.239 195.159 392.034 195.621 393.489 196.545C394.958 197.455 396.064 198.667 396.807 200.182C397.549 201.697 397.92 203.364 397.92 205.182V207.636C397.92 209.455 397.542 211.121 396.784 212.636C396.042 214.136 394.936 215.341 393.466 216.25C391.996 217.159 390.208 217.614 388.102 217.614C385.966 217.614 384.163 217.159 382.693 216.25C381.239 215.341 380.133 214.129 379.375 212.614C378.617 211.098 378.239 209.439 378.239 207.636ZM384.216 205.182V207.636C384.216 208.848 384.496 209.955 385.057 210.955C385.633 211.939 386.648 212.432 388.102 212.432C389.557 212.432 390.557 211.939 391.102 210.955C391.663 209.955 391.943 208.848 391.943 207.636V205.182C391.943 203.97 391.678 202.864 391.148 201.864C390.617 200.848 389.602 200.341 388.102 200.341C386.663 200.341 385.655 200.848 385.08 201.864C384.504 202.879 384.216 203.985 384.216 205.182ZM380.83 243L412.83 196.455H418.511L386.511 243H380.83Z" fill="black"/>
<rect x="236" y="301" width="445" height="24" rx="10" fill="#D9D9D9"/>
<rect x="236" y="301" width="348" height="24" rx="10" fill="#EF5753"/>
<g filter="url(#filter5_d_201_3)">
<rect x="218" y="129" width="475.333" height="277" rx="20" fill="white"/>
</g>
<line x1="221" y1="278.5" x2="693" y2="278.5" stroke="#D9D9D9"/>
<g filter="url(#filter6_d_201_3)">
<rect x="711" y="129" width="475.333" height="277" rx="20" fill="white"/>
</g>
<line x1="714" y1="278.5" x2="1186" y2="278.5" stroke="#D9D9D9"/>
<g filter="url(#filter7_d_201_3)">
<rect x="1204" y="129" width="475.333" height="277" rx="20" fill="white"/>
</g>
<g clip-path="url(#clip1_201_3)" filter="url(#filter8_d_201_3)">
<rect width="50" height="50" transform="translate(29 1019)" fill="white"/>
<path d="M71.5979 1061.61H64.1937V1050.01C64.1937 1047.24 64.1375 1043.68 60.3354 1043.68C56.475 1043.68 55.8854 1046.69 55.8854 1049.8V1061.61H48.4813V1037.75H55.5938V1041H55.6896C56.6833 1039.13 59.1 1037.15 62.7104 1037.15C70.2125 1037.15 71.6 1042.09 71.6 1048.51L71.5979 1061.61ZM40.1188 1034.49C37.7354 1034.49 35.8208 1032.56 35.8208 1030.18C35.8208 1027.81 37.7375 1025.89 40.1188 1025.89C42.4938 1025.89 44.4187 1027.81 44.4187 1030.18C44.4187 1032.56 42.4917 1034.49 40.1188 1034.49ZM43.8312 1061.61H36.4062V1037.75H43.8312V1061.61ZM75.3021 1019H32.6896C30.65 1019 29 1020.61 29 1022.6V1065.4C29 1067.39 30.65 1069 32.6896 1069H75.2958C77.3333 1069 79 1067.39 79 1065.4V1022.6C79 1020.61 77.3333 1019 75.2958 1019H75.3021Z" fill="#3A3A3A"/>
</g>
</g>
<defs>
<filter id="filter0_d_201_3" x="81" y="-7" width="1672" height="1153" filterUnits="userSpaceOnUse" color-interpolation-filters="sRGB">
<feFlood flood-opacity="0" result="BackgroundImageFix"/>
<feColorMatrix in="SourceAlpha" type="matrix" values="0 0 0 0 0 0 0 0 0 0 0 0 0 0 0 0 0 0 127 0" result="hardAlpha"/>
<feOffset dx="8" dy="8"/>
<feGaussianBlur stdDeviation="20"/>
<feComposite in2="hardAlpha" operator="out"/>
<feColorMatrix type="matrix" values="0 0 0 0 0.904167 0 0 0 0 0.904167 0 0 0 0 0.904167 0 0 0 1 0"/>
<feBlend mode="normal" in2="BackgroundImageFix" result="effect1_dropShadow_201_3"/>
<feBlend mode="normal" in="SourceGraphic" in2="effect1_dropShadow_201_3" result="shape"/>
</filter>
<filter id="filter1_d_201_3" x="184" y="95" width="555.333" height="357" filterUnits="userSpaceOnUse" color-interpolation-filters="sRGB">
<feFlood flood-opacity="0" result="BackgroundImageFix"/>
<feColorMatrix in="SourceAlpha" type="matrix" values="0 0 0 0 0 0 0 0 0 0 0 0 0 0 0 0 0 0 127 0" result="hardAlpha"/>
<feOffset dx="6" dy="6"/>
<feGaussianBlur stdDeviation="20"/>
<feComposite in2="hardAlpha" operator="out"/>
<feColorMatrix type="matrix" values="0 0 0 0 0.904167 0 0 0 0 0.904167 0 0 0 0 0.904167 0 0 0 1 0"/>
<feBlend mode="normal" in2="BackgroundImageFix" result="effect1_dropShadow_201_3"/>
<feBlend mode="normal" in="SourceGraphic" in2="effect1_dropShadow_201_3" result="shape"/>
</filter>
<filter id="filter2_d_201_3" x="184" y="95" width="555.333" height="357" filterUnits="userSpaceOnUse" color-interpolation-filters="sRGB">
<feFlood flood-opacity="0" result="BackgroundImageFix"/>
<feColorMatrix in="SourceAlpha" type="matrix" values="0 0 0 0 0 0 0 0 0 0 0 0 0 0 0 0 0 0 127 0" result="hardAlpha"/>
<feOffset dx="6" dy="6"/>
<feGaussianBlur stdDeviation="20"/>
<feComposite in2="hardAlpha" operator="out"/>
<feColorMatrix type="matrix" values="0 0 0 0 0.904167 0 0 0 0 0.904167 0 0 0 0 0.904167 0 0 0 1 0"/>
<feBlend mode="normal" in2="BackgroundImageFix" result="effect1_dropShadow_201_3"/>
<feBlend mode="normal" in="SourceGraphic" in2="effect1_dropShadow_201_3" result="shape"/>
</filter>
<filter id="filter3_d_201_3" x="184" y="405" width="1046" height="710" filterUnits="userSpaceOnUse" color-interpolation-filters="sRGB">
<feFlood flood-opacity="0" result="BackgroundImageFix"/>
<feColorMatrix in="SourceAlpha" type="matrix" values="0 0 0 0 0 0 0 0 0 0 0 0 0 0 0 0 0 0 127 0" result="hardAlpha"/>
<feOffset dx="6" dy="6"/>
<feGaussianBlur stdDeviation="20"/>
<feComposite in2="hardAlpha" operator="out"/>
<feColorMatrix type="matrix" values="0 0 0 0 0.904167 0 0 0 0 0.904167 0 0 0 0 0.904167 0 0 0 1 0"/>
<feBlend mode="normal" in2="BackgroundImageFix" result="effect1_dropShadow_201_3"/>
<feBlend mode="normal" in="SourceGraphic" in2="effect1_dropShadow_201_3" result="shape"/>
</filter>
<filter id="filter4_d_201_3" x="1165" y="405" width="555" height="710" filterUnits="userSpaceOnUse" color-interpolation-filters="sRGB">
<feFlood flood-opacity="0" result="BackgroundImageFix"/>
<feColorMatrix in="SourceAlpha" type="matrix" values="0 0 0 0 0 0 0 0 0 0 0 0 0 0 0 0 0 0 127 0" result="hardAlpha"/>
<feOffset dx="6" dy="6"/>
<feGaussianBlur stdDeviation="20"/>
<feComposite in2="hardAlpha" operator="out"/>
<feColorMatrix type="matrix" values="0 0 0 0 0.904167 0 0 0 0 0.904167 0 0 0 0 0.904167 0 0 0 1 0"/>
<feBlend mode="normal" in2="BackgroundImageFix" result="effect1_dropShadow_201_3"/>
<feBlend mode="normal" in="SourceGraphic" in2="effect1_dropShadow_201_3" result="shape"/>
</filter>
<filter id="filter5_d_201_3" x="184" y="95" width="555.333" height="357" filterUnits="userSpaceOnUse" color-interpolation-filters="sRGB">
<feFlood flood-opacity="0" result="BackgroundImageFix"/>
<feColorMatrix in="SourceAlpha" type="matrix" values="0 0 0 0 0 0 0 0 0 0 0 0 0 0 0 0 0 0 127 0" result="hardAlpha"/>
<feOffset dx="6" dy="6"/>
<feGaussianBlur stdDeviation="20"/>
<feComposite in2="hardAlpha" operator="out"/>
<feColorMatrix type="matrix" values="0 0 0 0 0.904167 0 0 0 0 0.904167 0 0 0 0 0.904167 0 0 0 1 0"/>
<feBlend mode="normal" in2="BackgroundImageFix" result="effect1_dropShadow_201_3"/>
<feBlend mode="normal" in="SourceGraphic" in2="effect1_dropShadow_201_3" result="shape"/>
</filter>
<filter id="filter6_d_201_3" x="677" y="95" width="555.333" height="357" filterUnits="userSpaceOnUse" color-interpolation-filters="sRGB">
<feFlood flood-opacity="0" result="BackgroundImageFix"/>
<feColorMatrix in="SourceAlpha" type="matrix" values="0 0 0 0 0 0 0 0 0 0 0 0 0 0 0 0 0 0 127 0" result="hardAlpha"/>
<feOffset dx="6" dy="6"/>
<feGaussianBlur stdDeviation="20"/>
<feComposite in2="hardAlpha" operator="out"/>
<feColorMatrix type="matrix" values="0 0 0 0 0.904167 0 0 0 0 0.904167 0 0 0 0 0.904167 0 0 0 1 0"/>
<feBlend mode="normal" in2="BackgroundImageFix" result="effect1_dropShadow_201_3"/>
<feBlend mode="normal" in="SourceGraphic" in2="effect1_dropShadow_201_3" result="shape"/>
</filter>
<filter id="filter7_d_201_3" x="1170" y="95" width="555.333" height="357" filterUnits="userSpaceOnUse" color-interpolation-filters="sRGB">
<feFlood flood-opacity="0" result="BackgroundImageFix"/>
<feColorMatrix in="SourceAlpha" type="matrix" values="0 0 0 0 0 0 0 0 0 0 0 0 0 0 0 0 0 0 127 0" result="hardAlpha"/>
<feOffset dx="6" dy="6"/>
<feGaussianBlur stdDeviation="20"/>
<feComposite in2="hardAlpha" operator="out"/>
<feColorMatrix type="matrix" values="0 0 0 0 0.904167 0 0 0 0 0.904167 0 0 0 0 0.904167 0 0 0 1 0"/>
<feBlend mode="normal" in2="BackgroundImageFix" result="effect1_dropShadow_201_3"/>
<feBlend mode="normal" in="SourceGraphic" in2="effect1_dropShadow_201_3" result="shape"/>
</filter>
<filter id="filter8_d_201_3" x="25" y="1019" width="58" height="58" filterUnits="userSpaceOnUse" color-interpolation-filters="sRGB">
<feFlood flood-opacity="0" result="BackgroundImageFix"/>
<feColorMatrix in="SourceAlpha" type="matrix" values="0 0 0 0 0 0 0 0 0 0 0 0 0 0 0 0 0 0 127 0" result="hardAlpha"/>
<feOffset dy="4"/>
<feGaussianBlur stdDeviation="2"/>
<feComposite in2="hardAlpha" operator="out"/>
<feColorMatrix type="matrix" values="0 0 0 0 0 0 0 0 0 0 0 0 0 0 0 0 0 0 0.25 0"/>
<feBlend mode="normal" in2="BackgroundImageFix" result="effect1_dropShadow_201_3"/>
<feBlend mode="normal" in="SourceGraphic" in2="effect1_dropShadow_201_3" result="shape"/>
</filter>
<clipPath id="clip0_201_3">
<rect width="1728" height="1117" rx="15" fill="white"/>
</clipPath>
<clipPath id="clip1_201_3">
<rect width="50" height="50" fill="white" transform="translate(29 1019)"/>
</clipPath>
</defs>
</svg>
