<svg width="1728" height="1117" viewBox="0 0 1728 1117" fill="none" xmlns="http://www.w3.org/2000/svg">
<g clip-path="url(#clip0_17_849)">
<rect width="1728" height="1117" rx="15" fill="#F2F2F2"/>
<path d="M33.1668 445.25V443.167C32.6143 443.167 32.0844 443.386 31.6937 443.777C31.303 444.168 31.0835 444.697 31.0835 445.25H33.1668ZM56.0835 445.25H58.1668C58.1668 444.697 57.9473 444.168 57.5566 443.777C57.1659 443.386 56.636 443.167 56.0835 443.167V445.25ZM56.0835 457.75V455.667C55.531 455.667 55.0011 455.886 54.6104 456.277C54.2197 456.668 54.0002 457.197 54.0002 457.75H56.0835ZM33.1668 447.333H56.0835V443.167H33.1668V447.333ZM54.0002 445.25V478.583H58.1668V445.25H54.0002ZM35.2502 474.417V445.25H31.0835V474.417H35.2502ZM56.0835 459.833H66.5002V455.667H56.0835V459.833ZM72.7502 466.083V474.417H76.9168V466.083H72.7502ZM58.1668 478.583V457.75H54.0002V478.583H58.1668ZM67.9731 480.056C67.5824 480.447 67.0526 480.666 66.5002 480.666C65.9477 480.666 65.4179 480.447 65.0272 480.056L62.0814 483.002C63.2535 484.174 64.8429 484.832 66.5002 484.832C68.1574 484.832 69.7469 484.174 70.9189 483.002L67.9731 480.056ZM65.0272 477.11C65.4179 476.72 65.9477 476.5 66.5002 476.5C67.0526 476.5 67.5824 476.72 67.9731 477.11L70.9189 474.165C69.7469 472.993 68.1574 472.335 66.5002 472.335C64.8429 472.335 63.2535 472.993 62.0814 474.165L65.0272 477.11ZM42.9731 480.056C42.5824 480.447 42.0526 480.666 41.5002 480.666C40.9477 480.666 40.4179 480.447 40.0272 480.056L37.0814 483.002C38.2535 484.174 39.8429 484.832 41.5002 484.832C43.1574 484.832 44.7469 484.174 45.9189 483.002L42.9731 480.056ZM40.0272 477.11C40.4179 476.72 40.9477 476.5 41.5002 476.5C42.0526 476.5 42.5824 476.72 42.9731 477.11L45.9189 474.165C44.7469 472.993 43.1574 472.335 41.5002 472.335C39.8429 472.335 38.2535 472.993 37.0814 474.165L40.0272 477.11ZM67.9731 477.11C68.3814 477.517 68.5835 478.048 68.5835 478.583H72.7502C72.7502 476.987 72.1397 475.383 70.9189 474.165L67.9731 477.11ZM68.5835 478.583C68.5841 478.857 68.5305 479.128 68.4257 479.381C68.3209 479.634 68.1671 479.863 67.9731 480.056L70.9189 483.002C71.4999 482.422 71.9607 481.733 72.2749 480.975C72.5892 480.217 72.7507 479.404 72.7502 478.583H68.5835ZM62.3335 476.5H56.0835V480.667H62.3335V476.5ZM65.0272 480.056C64.8332 479.863 64.6794 479.634 64.5746 479.381C64.4698 479.128 64.4162 478.857 64.4168 478.583H60.2502C60.2502 480.179 60.8606 481.783 62.0814 483.002L65.0272 480.056ZM64.4168 478.583C64.4157 478.31 64.4692 478.038 64.574 477.786C64.6788 477.533 64.8328 477.303 65.0272 477.11L62.0814 474.165C61.5005 474.744 61.0396 475.433 60.7254 476.191C60.4112 476.95 60.2497 477.763 60.2502 478.583H64.4168ZM40.0272 480.056C39.8332 479.863 39.6794 479.634 39.5746 479.381C39.4698 479.128 39.4162 478.857 39.4168 478.583H35.2502C35.2502 480.179 35.8606 481.783 37.0814 483.002L40.0272 480.056ZM39.4168 478.583C39.4157 478.31 39.4692 478.038 39.574 477.786C39.6788 477.533 39.8328 477.303 40.0272 477.11L37.0814 474.165C36.5005 474.744 36.0396 475.433 35.7254 476.191C35.4112 476.95 35.2497 477.763 35.2502 478.583H39.4168ZM56.0835 476.5H45.6668V480.667H56.0835V476.5ZM42.9731 477.11C43.3814 477.517 43.5835 478.048 43.5835 478.583H47.7502C47.7502 476.987 47.1397 475.383 45.9189 474.165L42.9731 477.11ZM43.5835 478.583C43.5841 478.857 43.5305 479.128 43.4257 479.381C43.321 479.634 43.1671 479.863 42.9731 480.056L45.9189 483.002C46.4999 482.422 46.9607 481.733 47.2749 480.975C47.5892 480.217 47.7507 479.404 47.7502 478.583H43.5835ZM72.7502 474.417C72.7502 474.969 72.5307 475.499 72.14 475.89C71.7493 476.281 71.2194 476.5 70.6668 476.5V480.667C72.3244 480.667 73.9141 480.008 75.0862 478.836C76.2583 477.664 76.9168 476.074 76.9168 474.417H72.7502ZM66.5002 459.833C68.1578 459.833 69.7475 460.492 70.9196 461.664C72.0917 462.836 72.7502 464.426 72.7502 466.083H76.9168C76.9168 464.715 76.6474 463.361 76.1239 462.097C75.6004 460.833 74.8331 459.685 73.8659 458.718C72.8986 457.75 71.7503 456.983 70.4865 456.46C69.2226 455.936 67.8681 455.667 66.5002 455.667V459.833ZM31.0835 474.417C31.0835 476.074 31.742 477.664 32.9141 478.836C34.0862 480.008 35.6759 480.667 37.3335 480.667V476.5C36.781 476.5 36.2511 476.281 35.8604 475.89C35.4697 475.499 35.2502 474.969 35.2502 474.417H31.0835Z" fill="#999999"/>
<path d="M54 366.225L66.5 377.475V397H61.5V382H46.5V397H41.5V377.475L54 366.225ZM54 359.5L29 382H36.5V402H51.5V387H56.5V402H71.5V382H79" fill="#999999"/>
<g filter="url(#filter0_d_17_849)">
<rect x="113" y="25" width="1592" height="1073" rx="20" fill="white"/>
</g>
<path d="M243.697 50.5645H238.756V54.002H243.297V56.5605H238.756V62H235.602V47.9961H243.697V50.5645ZM247.271 50.418C246.751 50.418 246.324 50.265 245.992 49.959C245.66 49.6465 245.494 49.2656 245.494 48.8164C245.494 48.3542 245.66 47.9766 245.992 47.6836C246.324 47.3906 246.751 47.2441 247.271 47.2441C247.799 47.2441 248.225 47.3906 248.551 47.6836C248.883 47.9766 249.049 48.3542 249.049 48.8164C249.049 49.2852 248.883 49.6693 248.551 49.9688C248.225 50.2682 247.799 50.418 247.271 50.418ZM248.795 62H245.709V52H248.795V62ZM261.051 62H257.975V56.4434C257.975 54.8939 257.421 54.1191 256.314 54.1191C255.781 54.1191 255.341 54.3242 254.996 54.7344C254.651 55.1445 254.479 55.6654 254.479 56.2969V62H251.393V52H254.479V53.582H254.518C255.253 52.3646 256.324 51.7559 257.73 51.7559C259.944 51.7559 261.051 53.1296 261.051 55.877V62ZM271.822 62H268.902V60.5645H268.863C268.193 61.6842 267.2 62.2441 265.885 62.2441C264.915 62.2441 264.15 61.9707 263.59 61.4238C263.036 60.8704 262.76 60.1348 262.76 59.2168C262.76 57.2767 263.909 56.1569 266.207 55.8574L268.922 55.4961C268.922 54.4023 268.329 53.8555 267.145 53.8555C265.953 53.8555 264.82 54.2103 263.746 54.9199V52.5957C264.176 52.3743 264.762 52.179 265.504 52.0098C266.253 51.8405 266.933 51.7559 267.545 51.7559C270.396 51.7559 271.822 53.1784 271.822 56.0234V62ZM268.922 57.9375V57.2637L267.105 57.498C266.103 57.6283 265.602 58.0807 265.602 58.8555C265.602 59.207 265.722 59.4967 265.963 59.7246C266.21 59.946 266.542 60.0566 266.959 60.0566C267.538 60.0566 268.01 59.8581 268.375 59.4609C268.74 59.0573 268.922 58.5495 268.922 57.9375ZM283.922 62H280.846V56.4434C280.846 54.8939 280.292 54.1191 279.186 54.1191C278.652 54.1191 278.212 54.3242 277.867 54.7344C277.522 55.1445 277.35 55.6654 277.35 56.2969V62H274.264V52H277.35V53.582H277.389C278.124 52.3646 279.195 51.7559 280.602 51.7559C282.815 51.7559 283.922 53.1296 283.922 55.877V62ZM293.951 61.6387C293.255 62.0423 292.249 62.2441 290.934 62.2441C289.397 62.2441 288.154 61.7786 287.203 60.8477C286.253 59.9167 285.777 58.7155 285.777 57.2441C285.777 55.5449 286.285 54.207 287.301 53.2305C288.323 52.2474 289.687 51.7559 291.393 51.7559C292.571 51.7559 293.424 51.9121 293.951 52.2246V54.8418C293.307 54.36 292.587 54.1191 291.793 54.1191C290.908 54.1191 290.204 54.3796 289.684 54.9004C289.169 55.4147 288.912 56.1276 288.912 57.0391C288.912 57.9245 289.16 58.6211 289.654 59.1289C290.149 59.6302 290.829 59.8809 291.695 59.8809C292.464 59.8809 293.215 59.64 293.951 59.1582V61.6387ZM304.967 57.8789H298.443C298.548 59.3307 299.462 60.0566 301.188 60.0566C302.288 60.0566 303.255 59.7962 304.088 59.2754V61.502C303.163 61.9967 301.962 62.2441 300.484 62.2441C298.87 62.2441 297.617 61.7982 296.725 60.9062C295.833 60.0078 295.387 58.7578 295.387 57.1562C295.387 55.4961 295.868 54.181 296.832 53.2109C297.796 52.2409 298.98 51.7559 300.387 51.7559C301.845 51.7559 302.971 52.1888 303.766 53.0547C304.566 53.9206 304.967 55.0957 304.967 56.5801V57.8789ZM302.105 55.9844C302.105 54.5521 301.526 53.8359 300.367 53.8359C299.872 53.8359 299.443 54.041 299.078 54.4512C298.72 54.8613 298.502 55.3724 298.424 55.9844H302.105ZM308.365 50.418C307.844 50.418 307.418 50.265 307.086 49.959C306.754 49.6465 306.588 49.2656 306.588 48.8164C306.588 48.3542 306.754 47.9766 307.086 47.6836C307.418 47.3906 307.844 47.2441 308.365 47.2441C308.893 47.2441 309.319 47.3906 309.645 47.6836C309.977 47.9766 310.143 48.3542 310.143 48.8164C310.143 49.2852 309.977 49.6693 309.645 49.9688C309.319 50.2682 308.893 50.418 308.365 50.418ZM309.889 62H306.803V52H309.889V62ZM319.01 54.7832C318.639 54.5814 318.206 54.4805 317.711 54.4805C317.04 54.4805 316.516 54.7279 316.139 55.2227C315.761 55.7109 315.572 56.3783 315.572 57.2246V62H312.486V52H315.572V53.8555H315.611C316.1 52.5013 316.979 51.8242 318.248 51.8242C318.574 51.8242 318.827 51.8633 319.01 51.9414V54.7832ZM325.143 62.2441C323.476 62.2441 322.164 61.7786 321.207 60.8477C320.257 59.9102 319.781 58.6406 319.781 57.0391C319.781 55.3854 320.276 54.0931 321.266 53.1621C322.255 52.2246 323.593 51.7559 325.279 51.7559C326.939 51.7559 328.242 52.2246 329.186 53.1621C330.13 54.0931 330.602 55.3268 330.602 56.8633C330.602 58.5234 330.113 59.8353 329.137 60.7988C328.167 61.7624 326.835 62.2441 325.143 62.2441ZM325.221 54.1191C324.492 54.1191 323.925 54.3698 323.521 54.8711C323.118 55.3724 322.916 56.082 322.916 57C322.916 58.9206 323.691 59.8809 325.24 59.8809C326.718 59.8809 327.457 58.8945 327.457 56.9219C327.457 55.0534 326.712 54.1191 325.221 54.1191Z" fill="black"/>
<path d="M246.676 99H244.859L243.375 95.0742H237.438L236.041 99H234.215L239.586 84.9961H241.285L246.676 99ZM242.838 93.5996L240.641 87.6328C240.569 87.4375 240.497 87.125 240.426 86.6953H240.387C240.322 87.0924 240.247 87.4049 240.162 87.6328L237.984 93.5996H242.838ZM255.348 98.541C254.579 99.0033 253.668 99.2344 252.613 99.2344C251.188 99.2344 250.035 98.7721 249.156 97.8477C248.284 96.9167 247.848 95.7122 247.848 94.2344C247.848 92.5872 248.32 91.2656 249.264 90.2695C250.208 89.2669 251.467 88.7656 253.043 88.7656C253.922 88.7656 254.697 88.9284 255.367 89.2539V90.8945C254.625 90.3737 253.831 90.1133 252.984 90.1133C251.962 90.1133 251.122 90.4811 250.465 91.2168C249.814 91.946 249.488 92.9062 249.488 94.0977C249.488 95.2695 249.794 96.194 250.406 96.8711C251.025 97.5482 251.852 97.8867 252.887 97.8867C253.759 97.8867 254.579 97.597 255.348 97.0176V98.541ZM261.949 99.2344C260.471 99.2344 259.29 98.7689 258.404 97.8379C257.525 96.9004 257.086 95.6602 257.086 94.1172C257.086 92.4375 257.545 91.1257 258.463 90.1816C259.381 89.2376 260.621 88.7656 262.184 88.7656C263.674 88.7656 264.837 89.2246 265.67 90.1426C266.51 91.0605 266.93 92.3333 266.93 93.9609C266.93 95.556 266.477 96.8353 265.572 97.7988C264.674 98.7559 263.466 99.2344 261.949 99.2344ZM262.066 90.1133C261.038 90.1133 260.224 90.4648 259.625 91.168C259.026 91.8646 258.727 92.8281 258.727 94.0586C258.727 95.2435 259.029 96.1777 259.635 96.8613C260.24 97.5449 261.051 97.8867 262.066 97.8867C263.102 97.8867 263.896 97.5514 264.449 96.8809C265.009 96.2103 265.289 95.2565 265.289 94.0195C265.289 92.7695 265.009 91.806 264.449 91.1289C263.896 90.4518 263.102 90.1133 262.066 90.1133ZM283.688 99H282.086V93.2578C282.086 92.151 281.913 91.3503 281.568 90.8555C281.23 90.3607 280.657 90.1133 279.85 90.1133C279.166 90.1133 278.583 90.4258 278.102 91.0508C277.626 91.6758 277.389 92.4245 277.389 93.2969V99H275.787V93.0625C275.787 91.0964 275.029 90.1133 273.512 90.1133C272.809 90.1133 272.229 90.4095 271.773 91.002C271.318 91.5879 271.09 92.3529 271.09 93.2969V99H269.488V89H271.09V90.582H271.129C271.839 89.3711 272.874 88.7656 274.234 88.7656C274.918 88.7656 275.514 88.9577 276.021 89.3418C276.529 89.7194 276.878 90.2174 277.066 90.8359C277.809 89.4557 278.915 88.7656 280.387 88.7656C282.587 88.7656 283.688 90.123 283.688 92.8379V99ZM288.355 97.5547H288.316V103.6H286.715V89H288.316V90.7578H288.355C289.143 89.4297 290.296 88.7656 291.812 88.7656C293.102 88.7656 294.107 89.2148 294.83 90.1133C295.553 91.0052 295.914 92.2031 295.914 93.707C295.914 95.3802 295.507 96.7214 294.693 97.7305C293.88 98.7331 292.766 99.2344 291.354 99.2344C290.058 99.2344 289.059 98.6745 288.355 97.5547ZM288.316 93.5215V94.918C288.316 95.7448 288.583 96.4479 289.117 97.0273C289.658 97.6003 290.341 97.8867 291.168 97.8867C292.138 97.8867 292.896 97.5156 293.443 96.7734C293.997 96.0312 294.273 94.9993 294.273 93.6777C294.273 92.5645 294.016 91.6921 293.502 91.0605C292.988 90.429 292.291 90.1133 291.412 90.1133C290.481 90.1133 289.732 90.4388 289.166 91.0898C288.6 91.7344 288.316 92.5449 288.316 93.5215ZM305.631 99H304.029V97.4375H303.99C303.294 98.6354 302.268 99.2344 300.914 99.2344C299.918 99.2344 299.137 98.9707 298.57 98.4434C298.01 97.916 297.73 97.2161 297.73 96.3438C297.73 94.4753 298.831 93.388 301.031 93.082L304.029 92.6621C304.029 90.9629 303.342 90.1133 301.969 90.1133C300.764 90.1133 299.677 90.5234 298.707 91.3438V89.7031C299.69 89.0781 300.823 88.7656 302.105 88.7656C304.456 88.7656 305.631 90.0091 305.631 92.4961V99ZM304.029 93.9414L301.617 94.2734C300.875 94.3776 300.315 94.5632 299.938 94.8301C299.56 95.0905 299.371 95.556 299.371 96.2266C299.371 96.7148 299.544 97.1152 299.889 97.4277C300.24 97.7337 300.706 97.8867 301.285 97.8867C302.079 97.8867 302.734 97.61 303.248 97.0566C303.769 96.4967 304.029 95.7904 304.029 94.9375V93.9414ZM316.949 99H315.348V93.2969C315.348 91.1745 314.573 90.1133 313.023 90.1133C312.223 90.1133 311.559 90.416 311.031 91.0215C310.51 91.6204 310.25 92.3789 310.25 93.2969V99H308.648V89H310.25V90.6602H310.289C311.044 89.3971 312.138 88.7656 313.57 88.7656C314.664 88.7656 315.501 89.1204 316.08 89.8301C316.66 90.5332 316.949 91.5521 316.949 92.8867V99ZM328.277 99H326.676V93.2383C326.676 91.1549 325.901 90.1133 324.352 90.1133C323.57 90.1133 322.913 90.416 322.379 91.0215C321.845 91.6204 321.578 92.3919 321.578 93.3359V99H319.977V84.1953H321.578V90.6602H321.617C322.385 89.3971 323.479 88.7656 324.898 88.7656C327.151 88.7656 328.277 90.123 328.277 92.8379V99ZM339.342 94.4004H332.281C332.307 95.5137 332.607 96.373 333.18 96.9785C333.753 97.584 334.54 97.8867 335.543 97.8867C336.669 97.8867 337.704 97.5156 338.648 96.7734V98.2773C337.77 98.9154 336.607 99.2344 335.162 99.2344C333.749 99.2344 332.639 98.7819 331.832 97.877C331.025 96.9655 330.621 95.6862 330.621 94.0391C330.621 92.4831 331.061 91.2168 331.939 90.2402C332.825 89.2572 333.922 88.7656 335.23 88.7656C336.539 88.7656 337.551 89.1888 338.268 90.0352C338.984 90.8815 339.342 92.0566 339.342 93.5605V94.4004ZM337.701 93.043C337.695 92.1185 337.47 91.3991 337.027 90.8848C336.591 90.3704 335.982 90.1133 335.201 90.1133C334.446 90.1133 333.805 90.3835 333.277 90.9238C332.75 91.4642 332.424 92.1706 332.301 93.043H337.701ZM351.441 99.2344C349.964 99.2344 348.782 98.7689 347.896 97.8379C347.018 96.9004 346.578 95.6602 346.578 94.1172C346.578 92.4375 347.037 91.1257 347.955 90.1816C348.873 89.2376 350.113 88.7656 351.676 88.7656C353.167 88.7656 354.329 89.2246 355.162 90.1426C356.002 91.0605 356.422 92.3333 356.422 93.9609C356.422 95.556 355.969 96.8353 355.064 97.7988C354.166 98.7559 352.958 99.2344 351.441 99.2344ZM351.559 90.1133C350.53 90.1133 349.716 90.4648 349.117 91.168C348.518 91.8646 348.219 92.8281 348.219 94.0586C348.219 95.2435 348.521 96.1777 349.127 96.8613C349.732 97.5449 350.543 97.8867 351.559 97.8867C352.594 97.8867 353.388 97.5514 353.941 96.8809C354.501 96.2103 354.781 95.2565 354.781 94.0195C354.781 92.7695 354.501 91.806 353.941 91.1289C353.388 90.4518 352.594 90.1133 351.559 90.1133ZM373.004 99H371.402V97.3008H371.363C370.621 98.5898 369.475 99.2344 367.926 99.2344C366.669 99.2344 365.663 98.7884 364.908 97.8965C364.16 96.998 363.785 95.7773 363.785 94.2344C363.785 92.5807 364.202 91.2559 365.035 90.2598C365.868 89.2637 366.979 88.7656 368.365 88.7656C369.739 88.7656 370.738 89.306 371.363 90.3867H371.402V84.1953H373.004V99ZM371.402 94.4785V93.0039C371.402 92.1966 371.135 91.513 370.602 90.9531C370.068 90.3932 369.391 90.1133 368.57 90.1133C367.594 90.1133 366.826 90.4714 366.266 91.1875C365.706 91.9036 365.426 92.8932 365.426 94.1562C365.426 95.3086 365.693 96.2201 366.227 96.8906C366.767 97.5547 367.49 97.8867 368.395 97.8867C369.286 97.8867 370.009 97.5645 370.562 96.9199C371.122 96.2754 371.402 95.4616 371.402 94.4785ZM384.283 94.4004H377.223C377.249 95.5137 377.548 96.373 378.121 96.9785C378.694 97.584 379.482 97.8867 380.484 97.8867C381.611 97.8867 382.646 97.5156 383.59 96.7734V98.2773C382.711 98.9154 381.549 99.2344 380.104 99.2344C378.691 99.2344 377.581 98.7819 376.773 97.877C375.966 96.9655 375.562 95.6862 375.562 94.0391C375.562 92.4831 376.002 91.2168 376.881 90.2402C377.766 89.2572 378.863 88.7656 380.172 88.7656C381.48 88.7656 382.493 89.1888 383.209 90.0352C383.925 90.8815 384.283 92.0566 384.283 93.5605V94.4004ZM382.643 93.043C382.636 92.1185 382.411 91.3991 381.969 90.8848C381.533 90.3704 380.924 90.1133 380.143 90.1133C379.387 90.1133 378.746 90.3835 378.219 90.9238C377.691 91.4642 377.366 92.1706 377.242 93.043H382.643ZM386.109 98.6387V96.9199C386.982 97.5645 387.942 97.8867 388.99 97.8867C390.396 97.8867 391.1 97.418 391.1 96.4805C391.1 96.2135 391.038 95.9889 390.914 95.8066C390.797 95.6178 390.634 95.4518 390.426 95.3086C390.224 95.1654 389.983 95.0384 389.703 94.9277C389.43 94.8105 389.133 94.6901 388.814 94.5664C388.372 94.3906 387.981 94.2148 387.643 94.0391C387.311 93.8568 387.031 93.6549 386.803 93.4336C386.581 93.2057 386.412 92.9486 386.295 92.6621C386.184 92.3757 386.129 92.0404 386.129 91.6562C386.129 91.1875 386.236 90.7741 386.451 90.416C386.666 90.0514 386.952 89.7487 387.311 89.5078C387.669 89.2604 388.076 89.0749 388.531 88.9512C388.993 88.8275 389.469 88.7656 389.957 88.7656C390.823 88.7656 391.598 88.9154 392.281 89.2148V90.8359C391.546 90.3542 390.699 90.1133 389.742 90.1133C389.443 90.1133 389.173 90.1491 388.932 90.2207C388.691 90.2858 388.482 90.3802 388.307 90.5039C388.137 90.6276 388.004 90.7773 387.906 90.9531C387.815 91.1224 387.77 91.3112 387.77 91.5195C387.77 91.7799 387.815 91.998 387.906 92.1738C388.004 92.3496 388.144 92.5059 388.326 92.6426C388.508 92.7793 388.73 92.903 388.99 93.0137C389.251 93.1243 389.547 93.2448 389.879 93.375C390.322 93.5443 390.719 93.7201 391.07 93.9023C391.422 94.0781 391.721 94.2799 391.969 94.5078C392.216 94.7292 392.405 94.9863 392.535 95.2793C392.672 95.5723 392.74 95.9206 392.74 96.3242C392.74 96.819 392.63 97.2487 392.408 97.6133C392.193 97.9779 391.904 98.2806 391.539 98.5215C391.174 98.7624 390.755 98.9414 390.279 99.0586C389.804 99.1758 389.306 99.2344 388.785 99.2344C387.757 99.2344 386.865 99.0358 386.109 98.6387ZM403.248 94.4004H396.188C396.214 95.5137 396.513 96.373 397.086 96.9785C397.659 97.584 398.447 97.8867 399.449 97.8867C400.576 97.8867 401.611 97.5156 402.555 96.7734V98.2773C401.676 98.9154 400.514 99.2344 399.068 99.2344C397.656 99.2344 396.546 98.7819 395.738 97.877C394.931 96.9655 394.527 95.6862 394.527 94.0391C394.527 92.4831 394.967 91.2168 395.846 90.2402C396.731 89.2572 397.828 88.7656 399.137 88.7656C400.445 88.7656 401.458 89.1888 402.174 90.0352C402.89 90.8815 403.248 92.0566 403.248 93.5605V94.4004ZM401.607 93.043C401.601 92.1185 401.376 91.3991 400.934 90.8848C400.497 90.3704 399.889 90.1133 399.107 90.1133C398.352 90.1133 397.711 90.3835 397.184 90.9238C396.656 91.4642 396.331 92.1706 396.207 93.043H401.607ZM419.879 99H418.277V93.2578C418.277 92.151 418.105 91.3503 417.76 90.8555C417.421 90.3607 416.848 90.1133 416.041 90.1133C415.357 90.1133 414.775 90.4258 414.293 91.0508C413.818 91.6758 413.58 92.4245 413.58 93.2969V99H411.979V93.0625C411.979 91.0964 411.22 90.1133 409.703 90.1133C409 90.1133 408.421 90.4095 407.965 91.002C407.509 91.5879 407.281 92.3529 407.281 93.2969V99H405.68V89H407.281V90.582H407.32C408.03 89.3711 409.065 88.7656 410.426 88.7656C411.109 88.7656 411.705 88.9577 412.213 89.3418C412.721 89.7194 413.069 90.2174 413.258 90.8359C414 89.4557 415.107 88.7656 416.578 88.7656C418.779 88.7656 419.879 90.123 419.879 92.8379V99ZM424.547 97.5547H424.508V103.6H422.906V89H424.508V90.7578H424.547C425.335 89.4297 426.487 88.7656 428.004 88.7656C429.293 88.7656 430.299 89.2148 431.021 90.1133C431.744 91.0052 432.105 92.2031 432.105 93.707C432.105 95.3802 431.699 96.7214 430.885 97.7305C430.071 98.7331 428.958 99.2344 427.545 99.2344C426.249 99.2344 425.25 98.6745 424.547 97.5547ZM424.508 93.5215V94.918C424.508 95.7448 424.775 96.4479 425.309 97.0273C425.849 97.6003 426.533 97.8867 427.359 97.8867C428.329 97.8867 429.088 97.5156 429.635 96.7734C430.188 96.0312 430.465 94.9993 430.465 93.6777C430.465 92.5645 430.208 91.6921 429.693 91.0605C429.179 90.429 428.482 90.1133 427.604 90.1133C426.673 90.1133 425.924 90.4388 425.357 91.0898C424.791 91.7344 424.508 92.5449 424.508 93.5215ZM442.701 94.4004H435.641C435.667 95.5137 435.966 96.373 436.539 96.9785C437.112 97.584 437.9 97.8867 438.902 97.8867C440.029 97.8867 441.064 97.5156 442.008 96.7734V98.2773C441.129 98.9154 439.967 99.2344 438.521 99.2344C437.109 99.2344 435.999 98.7819 435.191 97.877C434.384 96.9655 433.98 95.6862 433.98 94.0391C433.98 92.4831 434.42 91.2168 435.299 90.2402C436.184 89.2572 437.281 88.7656 438.59 88.7656C439.898 88.7656 440.911 89.1888 441.627 90.0352C442.343 90.8815 442.701 92.0566 442.701 93.5605V94.4004ZM441.061 93.043C441.054 92.1185 440.829 91.3991 440.387 90.8848C439.951 90.3704 439.342 90.1133 438.561 90.1133C437.805 90.1133 437.164 90.3835 436.637 90.9238C436.109 91.4642 435.784 92.1706 435.66 93.043H441.061ZM453.434 99H451.832V93.2969C451.832 91.1745 451.057 90.1133 449.508 90.1133C448.707 90.1133 448.043 90.416 447.516 91.0215C446.995 91.6204 446.734 92.3789 446.734 93.2969V99H445.133V89H446.734V90.6602H446.773C447.529 89.3971 448.622 88.7656 450.055 88.7656C451.148 88.7656 451.985 89.1204 452.564 89.8301C453.144 90.5332 453.434 91.5521 453.434 92.8867V99ZM464.762 99H463.16V93.2383C463.16 91.1549 462.385 90.1133 460.836 90.1133C460.055 90.1133 459.397 90.416 458.863 91.0215C458.329 91.6204 458.062 92.3919 458.062 93.3359V99H456.461V84.1953H458.062V90.6602H458.102C458.87 89.3971 459.964 88.7656 461.383 88.7656C463.635 88.7656 464.762 90.123 464.762 92.8379V99ZM471.969 99.2344C470.491 99.2344 469.309 98.7689 468.424 97.8379C467.545 96.9004 467.105 95.6602 467.105 94.1172C467.105 92.4375 467.564 91.1257 468.482 90.1816C469.4 89.2376 470.641 88.7656 472.203 88.7656C473.694 88.7656 474.856 89.2246 475.689 90.1426C476.529 91.0605 476.949 92.3333 476.949 93.9609C476.949 95.556 476.497 96.8353 475.592 97.7988C474.693 98.7559 473.486 99.2344 471.969 99.2344ZM472.086 90.1133C471.057 90.1133 470.243 90.4648 469.645 91.168C469.046 91.8646 468.746 92.8281 468.746 94.0586C468.746 95.2435 469.049 96.1777 469.654 96.8613C470.26 97.5449 471.07 97.8867 472.086 97.8867C473.121 97.8867 473.915 97.5514 474.469 96.8809C475.029 96.2103 475.309 95.2565 475.309 94.0195C475.309 92.7695 475.029 91.806 474.469 91.1289C473.915 90.4518 473.121 90.1133 472.086 90.1133ZM489.938 85.6016C489.625 85.4258 489.27 85.3379 488.873 85.3379C487.753 85.3379 487.193 86.0443 487.193 87.457V89H489.537V90.3672H487.193V99H485.602V90.3672H483.893V89H485.602V87.3789C485.602 86.3307 485.904 85.5039 486.51 84.8984C487.115 84.2865 487.87 83.9805 488.775 83.9805C489.264 83.9805 489.651 84.0391 489.938 84.1562V85.6016ZM492.086 86.4609C491.799 86.4609 491.555 86.3633 491.354 86.168C491.152 85.9727 491.051 85.7253 491.051 85.4258C491.051 85.1263 491.152 84.8789 491.354 84.6836C491.555 84.4818 491.799 84.3809 492.086 84.3809C492.379 84.3809 492.626 84.4818 492.828 84.6836C493.036 84.8789 493.141 85.1263 493.141 85.4258C493.141 85.7122 493.036 85.9564 492.828 86.1582C492.626 86.36 492.379 86.4609 492.086 86.4609ZM492.867 99H491.266V89H492.867V99ZM504.41 99H502.809V93.2969C502.809 91.1745 502.034 90.1133 500.484 90.1133C499.684 90.1133 499.02 90.416 498.492 91.0215C497.971 91.6204 497.711 92.3789 497.711 93.2969V99H496.109V89H497.711V90.6602H497.75C498.505 89.3971 499.599 88.7656 501.031 88.7656C502.125 88.7656 502.962 89.1204 503.541 89.8301C504.12 90.5332 504.41 91.5521 504.41 92.8867V99ZM514.596 99H512.994V97.4375H512.955C512.258 98.6354 511.233 99.2344 509.879 99.2344C508.883 99.2344 508.102 98.9707 507.535 98.4434C506.975 97.916 506.695 97.2161 506.695 96.3438C506.695 94.4753 507.796 93.388 509.996 93.082L512.994 92.6621C512.994 90.9629 512.307 90.1133 510.934 90.1133C509.729 90.1133 508.642 90.5234 507.672 91.3438V89.7031C508.655 89.0781 509.788 88.7656 511.07 88.7656C513.421 88.7656 514.596 90.0091 514.596 92.4961V99ZM512.994 93.9414L510.582 94.2734C509.84 94.3776 509.28 94.5632 508.902 94.8301C508.525 95.0905 508.336 95.556 508.336 96.2266C508.336 96.7148 508.508 97.1152 508.854 97.4277C509.205 97.7337 509.671 97.8867 510.25 97.8867C511.044 97.8867 511.699 97.61 512.213 97.0566C512.734 96.4967 512.994 95.7904 512.994 94.9375V93.9414ZM525.914 99H524.312V93.2969C524.312 91.1745 523.538 90.1133 521.988 90.1133C521.188 90.1133 520.523 90.416 519.996 91.0215C519.475 91.6204 519.215 92.3789 519.215 93.2969V99H517.613V89H519.215V90.6602H519.254C520.009 89.3971 521.103 88.7656 522.535 88.7656C523.629 88.7656 524.465 89.1204 525.045 89.8301C525.624 90.5332 525.914 91.5521 525.914 92.8867V99ZM535.758 98.541C534.99 99.0033 534.078 99.2344 533.023 99.2344C531.598 99.2344 530.445 98.7721 529.566 97.8477C528.694 96.9167 528.258 95.7122 528.258 94.2344C528.258 92.5872 528.73 91.2656 529.674 90.2695C530.618 89.2669 531.878 88.7656 533.453 88.7656C534.332 88.7656 535.107 88.9284 535.777 89.2539V90.8945C535.035 90.3737 534.241 90.1133 533.395 90.1133C532.372 90.1133 531.533 90.4811 530.875 91.2168C530.224 91.946 529.898 92.9062 529.898 94.0977C529.898 95.2695 530.204 96.194 530.816 96.8711C531.435 97.5482 532.262 97.8867 533.297 97.8867C534.169 97.8867 534.99 97.597 535.758 97.0176V98.541ZM546.217 94.4004H539.156C539.182 95.5137 539.482 96.373 540.055 96.9785C540.628 97.584 541.415 97.8867 542.418 97.8867C543.544 97.8867 544.579 97.5156 545.523 96.7734V98.2773C544.645 98.9154 543.482 99.2344 542.037 99.2344C540.624 99.2344 539.514 98.7819 538.707 97.877C537.9 96.9655 537.496 95.6862 537.496 94.0391C537.496 92.4831 537.936 91.2168 538.814 90.2402C539.7 89.2572 540.797 88.7656 542.105 88.7656C543.414 88.7656 544.426 89.1888 545.143 90.0352C545.859 90.8815 546.217 92.0566 546.217 93.5605V94.4004ZM544.576 93.043C544.57 92.1185 544.345 91.3991 543.902 90.8848C543.466 90.3704 542.857 90.1133 542.076 90.1133C541.321 90.1133 540.68 90.3835 540.152 90.9238C539.625 91.4642 539.299 92.1706 539.176 93.043H544.576ZM549.469 86.4609C549.182 86.4609 548.938 86.3633 548.736 86.168C548.535 85.9727 548.434 85.7253 548.434 85.4258C548.434 85.1263 548.535 84.8789 548.736 84.6836C548.938 84.4818 549.182 84.3809 549.469 84.3809C549.762 84.3809 550.009 84.4818 550.211 84.6836C550.419 84.8789 550.523 85.1263 550.523 85.4258C550.523 85.7122 550.419 85.9564 550.211 86.1582C550.009 86.36 549.762 86.4609 549.469 86.4609ZM550.25 99H548.648V89H550.25V99ZM558.707 90.6211C558.427 90.4062 558.023 90.2988 557.496 90.2988C556.812 90.2988 556.24 90.6211 555.777 91.2656C555.322 91.9102 555.094 92.7891 555.094 93.9023V99H553.492V89H555.094V91.0605H555.133C555.361 90.3574 555.709 89.8105 556.178 89.4199C556.646 89.0228 557.171 88.8242 557.75 88.8242C558.167 88.8242 558.486 88.8698 558.707 88.9609V90.6211ZM564.625 99.2344C563.147 99.2344 561.965 98.7689 561.08 97.8379C560.201 96.9004 559.762 95.6602 559.762 94.1172C559.762 92.4375 560.221 91.1257 561.139 90.1816C562.057 89.2376 563.297 88.7656 564.859 88.7656C566.35 88.7656 567.512 89.2246 568.346 90.1426C569.186 91.0605 569.605 92.3333 569.605 93.9609C569.605 95.556 569.153 96.8353 568.248 97.7988C567.35 98.7559 566.142 99.2344 564.625 99.2344ZM564.742 90.1133C563.714 90.1133 562.9 90.4648 562.301 91.168C561.702 91.8646 561.402 92.8281 561.402 94.0586C561.402 95.2435 561.705 96.1777 562.311 96.8613C562.916 97.5449 563.727 97.8867 564.742 97.8867C565.777 97.8867 566.572 97.5514 567.125 96.8809C567.685 96.2103 567.965 95.2565 567.965 94.0195C567.965 92.7695 567.685 91.806 567.125 91.1289C566.572 90.4518 565.777 90.1133 564.742 90.1133Z" fill="black"/>
<g filter="url(#filter1_d_17_849)">
<rect x="218" y="129" width="475.333" height="277" rx="20" fill="white"/>
</g>
<line x1="221" y1="278.5" x2="693" y2="278.5" stroke="#D9D9D9"/>
<g filter="url(#filter2_d_17_849)">
<rect x="218" y="129" width="475.333" height="277" rx="20" fill="white"/>
</g>
<line x1="221" y1="278.5" x2="693" y2="278.5" stroke="#D9D9D9"/>
<g filter="url(#filter3_d_17_849)">
<rect x="219" y="446" width="966" height="630" rx="20" fill="white"/>
</g>
<g filter="url(#filter4_d_17_849)">
<rect x="1199" y="439" width="475" height="630" rx="20" fill="white"/>
</g>
<path d="M660.9 162.103L666 157.003L671.1 162.103L672.103 161.1L667.003 156L672.103 150.9L671.1 149.897L666 154.997L660.9 149.897L659.897 150.9L664.997 156L659.897 161.1L660.9 162.103ZM666.004 168.75C664.242 168.75 662.584 168.416 661.032 167.747C659.48 167.077 658.13 166.169 656.981 165.021C655.833 163.875 654.924 162.526 654.254 160.975C653.585 159.425 653.25 157.768 653.25 156.004C653.25 154.242 653.584 152.584 654.253 151.032C654.923 149.48 655.831 148.13 656.979 146.981C658.125 145.833 659.474 144.924 661.025 144.254C662.575 143.585 664.232 143.25 665.996 143.25C667.758 143.25 669.416 143.584 670.968 144.253C672.52 144.923 673.87 145.831 675.018 146.979C676.167 148.125 677.076 149.474 677.746 151.025C678.415 152.575 678.75 154.232 678.75 155.996C678.75 157.758 678.416 159.416 677.747 160.968C677.077 162.52 676.169 163.87 675.021 165.018C673.875 166.167 672.526 167.076 670.975 167.746C669.425 168.415 667.768 168.75 666.004 168.75Z" fill="#3A3A3A"/>
<path d="M241.69 158.955V158.379C241.69 157.982 241.772 157.618 241.935 157.287C242.102 156.953 242.344 156.687 242.66 156.488C242.979 156.286 243.366 156.185 243.821 156.185C244.283 156.185 244.67 156.286 244.982 156.488C245.295 156.687 245.531 156.953 245.691 157.287C245.85 157.618 245.93 157.982 245.93 158.379V158.955C245.93 159.352 245.849 159.718 245.685 160.052C245.526 160.382 245.288 160.648 244.972 160.851C244.659 161.05 244.276 161.149 243.821 161.149C243.359 161.149 242.971 161.05 242.654 160.851C242.338 160.648 242.099 160.382 241.935 160.052C241.772 159.718 241.69 159.352 241.69 158.955ZM242.777 158.379V158.955C242.777 159.285 242.855 159.581 243.011 159.844C243.168 160.103 243.438 160.233 243.821 160.233C244.194 160.233 244.457 160.103 244.609 159.844C244.766 159.581 244.844 159.285 244.844 158.955V158.379C244.844 158.049 244.769 157.754 244.62 157.495C244.471 157.232 244.205 157.101 243.821 157.101C243.448 157.101 243.18 157.232 243.017 157.495C242.857 157.754 242.777 158.049 242.777 158.379ZM236.257 152.712V152.136C236.257 151.739 236.339 151.375 236.502 151.044C236.669 150.711 236.911 150.444 237.227 150.245C237.546 150.043 237.933 149.942 238.388 149.942C238.849 149.942 239.237 150.043 239.549 150.245C239.862 150.444 240.098 150.711 240.257 151.044C240.417 151.375 240.497 151.739 240.497 152.136V152.712C240.497 153.109 240.415 153.475 240.252 153.809C240.092 154.139 239.854 154.406 239.538 154.608C239.226 154.807 238.842 154.906 238.388 154.906C237.926 154.906 237.537 154.807 237.221 154.608C236.905 154.406 236.665 154.139 236.502 153.809C236.339 153.475 236.257 153.109 236.257 152.712ZM237.344 152.136V152.712C237.344 153.042 237.422 153.338 237.578 153.601C237.734 153.86 238.004 153.99 238.388 153.99C238.761 153.99 239.023 153.86 239.176 153.601C239.332 153.338 239.411 153.042 239.411 152.712V152.136C239.411 151.806 239.336 151.511 239.187 151.252C239.038 150.989 238.771 150.858 238.388 150.858C238.015 150.858 237.747 150.989 237.583 151.252C237.424 151.511 237.344 151.806 237.344 152.136ZM236.662 161L244.162 150.091H245.376L237.876 161H236.662ZM256.094 161H252.727V150.091H256.243C257.301 150.091 258.207 150.309 258.96 150.746C259.712 151.179 260.289 151.803 260.691 152.616C261.092 153.425 261.293 154.395 261.293 155.524C261.293 156.661 261.09 157.639 260.685 158.459C260.281 159.276 259.691 159.904 258.917 160.345C258.143 160.782 257.202 161 256.094 161ZM254.048 159.828H256.009C256.911 159.828 257.658 159.654 258.251 159.306C258.844 158.958 259.286 158.463 259.577 157.82C259.869 157.177 260.014 156.412 260.014 155.524C260.014 154.643 259.87 153.885 259.583 153.25C259.295 152.61 258.865 152.12 258.294 151.779C257.722 151.435 257.01 151.263 256.158 151.263H254.048V159.828ZM263.509 161V150.091H270.092V151.263H264.83V154.949H269.751V156.121H264.83V159.828H270.178V161H263.509ZM285.471 153.5H284.15C284.071 153.12 283.935 152.786 283.739 152.499C283.548 152.211 283.313 151.969 283.036 151.774C282.763 151.575 282.459 151.426 282.125 151.327C281.792 151.227 281.444 151.178 281.081 151.178C280.421 151.178 279.822 151.344 279.286 151.678C278.754 152.012 278.329 152.504 278.013 153.154C277.701 153.804 277.544 154.601 277.544 155.545C277.544 156.49 277.701 157.287 278.013 157.937C278.329 158.587 278.754 159.079 279.286 159.413C279.822 159.746 280.421 159.913 281.081 159.913C281.444 159.913 281.792 159.864 282.125 159.764C282.459 159.665 282.763 159.517 283.036 159.322C283.313 159.123 283.548 158.88 283.739 158.592C283.935 158.301 284.071 157.967 284.15 157.591H285.471C285.371 158.148 285.19 158.647 284.927 159.088C284.664 159.528 284.338 159.903 283.947 160.212C283.556 160.517 283.118 160.75 282.631 160.909C282.148 161.069 281.632 161.149 281.081 161.149C280.151 161.149 279.324 160.922 278.599 160.467C277.875 160.013 277.305 159.366 276.889 158.528C276.474 157.69 276.266 156.696 276.266 155.545C276.266 154.395 276.474 153.401 276.889 152.562C277.305 151.724 277.875 151.078 278.599 150.624C279.324 150.169 280.151 149.942 281.081 149.942C281.632 149.942 282.148 150.022 282.631 150.181C283.118 150.341 283.556 150.576 283.947 150.885C284.338 151.19 284.664 151.563 284.927 152.003C285.19 152.44 285.371 152.939 285.471 153.5ZM288.053 161H286.668L290.673 150.091H292.037L296.043 161H294.658L291.398 151.817H291.313L288.053 161ZM288.564 156.739H294.146V157.911H288.564V156.739ZM306.392 150.091V161H305.114L299.169 152.435H299.063V161H297.742V150.091H299.02L304.986 158.678H305.093V150.091H306.392ZM317.814 153.5H316.493C316.415 153.12 316.278 152.786 316.083 152.499C315.891 152.211 315.657 151.969 315.38 151.774C315.107 151.575 314.803 151.426 314.469 151.327C314.135 151.227 313.787 151.178 313.425 151.178C312.765 151.178 312.166 151.344 311.63 151.678C311.097 152.012 310.673 152.504 310.357 153.154C310.044 153.804 309.888 154.601 309.888 155.545C309.888 156.49 310.044 157.287 310.357 157.937C310.673 158.587 311.097 159.079 311.63 159.413C312.166 159.746 312.765 159.913 313.425 159.913C313.787 159.913 314.135 159.864 314.469 159.764C314.803 159.665 315.107 159.517 315.38 159.322C315.657 159.123 315.891 158.88 316.083 158.592C316.278 158.301 316.415 157.967 316.493 157.591H317.814C317.715 158.148 317.534 158.647 317.271 159.088C317.008 159.528 316.681 159.903 316.291 160.212C315.9 160.517 315.462 160.75 314.975 160.909C314.492 161.069 313.975 161.149 313.425 161.149C312.495 161.149 311.667 160.922 310.943 160.467C310.218 160.013 309.648 159.366 309.233 158.528C308.817 157.69 308.61 156.696 308.61 155.545C308.61 154.395 308.817 153.401 309.233 152.562C309.648 151.724 310.218 151.078 310.943 150.624C311.667 150.169 312.495 149.942 313.425 149.942C313.975 149.942 314.492 150.022 314.975 150.181C315.462 150.341 315.9 150.576 316.291 150.885C316.681 151.19 317.008 151.563 317.271 152.003C317.534 152.44 317.715 152.939 317.814 153.5ZM319.949 161V150.091H326.533V151.263H321.27V154.949H326.192V156.121H321.27V159.828H326.618V161H319.949ZM328.914 161V150.091H330.235V159.828H335.306V161H328.914ZM338.487 161H337.102L341.108 150.091H342.472L346.477 161H345.092L341.832 151.817H341.747L338.487 161ZM338.999 156.739H344.581V157.911H338.999V156.739ZM348.176 150.091H349.753L353.461 159.146H353.588L357.296 150.091H358.873V161H357.637V152.712H357.53L354.121 161H352.928L349.519 152.712H349.412V161H348.176V150.091ZM361.521 161V150.091H368.105V151.263H362.842V154.949H367.764V156.121H362.842V159.828H368.19V161H361.521ZM379.137 150.091V161H377.858L371.914 152.435H371.807V161H370.486V150.091H371.764L377.73 158.678H377.837V150.091H379.137ZM381.183 151.263V150.091H389.365V151.263H385.935V161H384.614V151.263H381.183ZM400.154 155.545C400.154 156.696 399.947 157.69 399.531 158.528C399.116 159.366 398.546 160.013 397.821 160.467C397.097 160.922 396.27 161.149 395.339 161.149C394.409 161.149 393.581 160.922 392.857 160.467C392.132 160.013 391.563 159.366 391.147 158.528C390.732 157.69 390.524 156.696 390.524 155.545C390.524 154.395 390.732 153.401 391.147 152.562C391.563 151.724 392.132 151.078 392.857 150.624C393.581 150.169 394.409 149.942 395.339 149.942C396.27 149.942 397.097 150.169 397.821 150.624C398.546 151.078 399.116 151.724 399.531 152.562C399.947 153.401 400.154 154.395 400.154 155.545ZM398.876 155.545C398.876 154.601 398.718 153.804 398.402 153.154C398.089 152.504 397.665 152.012 397.129 151.678C396.596 151.344 396 151.178 395.339 151.178C394.679 151.178 394.08 151.344 393.544 151.678C393.011 152.012 392.587 152.504 392.271 153.154C391.958 153.804 391.802 154.601 391.802 155.545C391.802 156.49 391.958 157.287 392.271 157.937C392.587 158.587 393.011 159.079 393.544 159.413C394.08 159.746 394.679 159.913 395.339 159.913C396 159.913 396.596 159.746 397.129 159.413C397.665 159.079 398.089 158.587 398.402 157.937C398.718 157.287 398.876 156.49 398.876 155.545Z" fill="black"/>
<path d="M238.136 243V236.909L254.295 221.068C255.841 219.508 257.129 218.121 258.159 216.909C259.189 215.697 259.962 214.523 260.477 213.386C260.992 212.25 261.25 211.038 261.25 209.75C261.25 208.28 260.917 207.023 260.25 205.977C259.583 204.917 258.667 204.098 257.5 203.523C256.333 202.947 255.008 202.659 253.523 202.659C251.992 202.659 250.652 202.977 249.5 203.614C248.348 204.235 247.455 205.121 246.818 206.273C246.197 207.424 245.886 208.795 245.886 210.386H237.864C237.864 207.432 238.538 204.864 239.886 202.682C241.235 200.5 243.091 198.811 245.455 197.614C247.833 196.417 250.561 195.818 253.636 195.818C256.758 195.818 259.5 196.402 261.864 197.568C264.227 198.735 266.061 200.333 267.364 202.364C268.682 204.394 269.341 206.712 269.341 209.318C269.341 211.061 269.008 212.773 268.341 214.455C267.674 216.136 266.5 218 264.818 220.045C263.152 222.091 260.811 224.568 257.795 227.477L249.773 235.636V235.955H270.045V243H238.136ZM294.591 243.636C291.318 243.636 288.409 243.076 285.864 241.955C283.333 240.833 281.333 239.273 279.864 237.273C278.394 235.273 277.614 232.962 277.523 230.341H286.068C286.144 231.598 286.561 232.697 287.318 233.636C288.076 234.561 289.083 235.28 290.341 235.795C291.598 236.311 293.008 236.568 294.568 236.568C296.235 236.568 297.712 236.28 299 235.705C300.288 235.114 301.295 234.295 302.023 233.25C302.75 232.205 303.106 231 303.091 229.636C303.106 228.227 302.742 226.985 302 225.909C301.258 224.833 300.182 223.992 298.773 223.386C297.379 222.78 295.697 222.477 293.727 222.477H289.614V215.977H293.727C295.348 215.977 296.765 215.697 297.977 215.136C299.205 214.576 300.167 213.788 300.864 212.773C301.561 211.742 301.902 210.553 301.886 209.205C301.902 207.886 301.606 206.742 301 205.773C300.409 204.788 299.568 204.023 298.477 203.477C297.402 202.932 296.136 202.659 294.682 202.659C293.258 202.659 291.939 202.917 290.727 203.432C289.515 203.947 288.538 204.682 287.795 205.636C287.053 206.576 286.659 207.697 286.614 209H278.5C278.561 206.394 279.311 204.106 280.75 202.136C282.205 200.152 284.144 198.606 286.568 197.5C288.992 196.379 291.712 195.818 294.727 195.818C297.833 195.818 300.53 196.402 302.818 197.568C305.121 198.72 306.902 200.273 308.159 202.227C309.417 204.182 310.045 206.341 310.045 208.705C310.061 211.326 309.288 213.523 307.727 215.295C306.182 217.068 304.152 218.227 301.636 218.773V219.136C304.909 219.591 307.417 220.803 309.159 222.773C310.917 224.727 311.788 227.159 311.773 230.068C311.773 232.674 311.03 235.008 309.545 237.068C308.076 239.114 306.045 240.72 303.455 241.886C300.879 243.053 297.924 243.636 294.591 243.636ZM327.949 236.636L327.653 239.136C327.441 241.045 327.063 242.985 326.517 244.955C325.987 246.939 325.426 248.765 324.835 250.432C324.244 252.098 323.767 253.409 323.403 254.364H317.858C318.07 253.439 318.358 252.182 318.722 250.591C319.1 249 319.464 247.212 319.812 245.227C320.161 243.242 320.396 241.227 320.517 239.182L320.676 236.636H327.949ZM352.693 243.636C349.663 243.636 346.951 243.068 344.557 241.932C342.163 240.78 340.261 239.205 338.852 237.205C337.458 235.205 336.716 232.917 336.625 230.341H344.807C344.958 232.25 345.784 233.811 347.284 235.023C348.784 236.22 350.587 236.818 352.693 236.818C354.345 236.818 355.814 236.439 357.102 235.682C358.39 234.924 359.405 233.871 360.148 232.523C360.89 231.174 361.254 229.636 361.239 227.909C361.254 226.152 360.883 224.591 360.125 223.227C359.367 221.864 358.33 220.795 357.011 220.023C355.693 219.235 354.178 218.841 352.466 218.841C351.072 218.826 349.701 219.083 348.352 219.614C347.004 220.144 345.936 220.841 345.148 221.705L337.534 220.455L339.966 196.455H366.966V203.5H346.943L345.602 215.841H345.875C346.739 214.826 347.958 213.985 349.534 213.318C351.11 212.636 352.837 212.295 354.716 212.295C357.534 212.295 360.049 212.962 362.261 214.295C364.473 215.614 366.216 217.432 367.489 219.75C368.761 222.068 369.398 224.72 369.398 227.705C369.398 230.78 368.686 233.523 367.261 235.932C365.852 238.326 363.89 240.212 361.375 241.591C358.875 242.955 355.981 243.636 352.693 243.636ZM401.898 234.273V231.818C401.898 230.015 402.277 228.356 403.034 226.841C403.807 225.326 404.928 224.106 406.398 223.182C407.867 222.258 409.648 221.795 411.739 221.795C413.89 221.795 415.693 222.258 417.148 223.182C418.602 224.091 419.701 225.303 420.443 226.818C421.201 228.333 421.58 230 421.58 231.818V234.273C421.58 236.076 421.201 237.735 420.443 239.25C419.686 240.765 418.572 241.985 417.102 242.909C415.648 243.833 413.86 244.295 411.739 244.295C409.617 244.295 407.822 243.833 406.352 242.909C404.883 241.985 403.769 240.765 403.011 239.25C402.269 237.735 401.898 236.076 401.898 234.273ZM407.83 231.818V234.273C407.83 235.47 408.117 236.568 408.693 237.568C409.269 238.568 410.284 239.068 411.739 239.068C413.208 239.068 414.216 238.576 414.761 237.591C415.322 236.591 415.602 235.485 415.602 234.273V231.818C415.602 230.606 415.337 229.5 414.807 228.5C414.277 227.485 413.254 226.977 411.739 226.977C410.314 226.977 409.307 227.485 408.716 228.5C408.125 229.5 407.83 230.606 407.83 231.818ZM378.239 207.636V205.182C378.239 203.364 378.625 201.697 379.398 200.182C380.17 198.667 381.292 197.455 382.761 196.545C384.231 195.621 386.011 195.159 388.102 195.159C390.239 195.159 392.034 195.621 393.489 196.545C394.958 197.455 396.064 198.667 396.807 200.182C397.549 201.697 397.92 203.364 397.92 205.182V207.636C397.92 209.455 397.542 211.121 396.784 212.636C396.042 214.136 394.936 215.341 393.466 216.25C391.996 217.159 390.208 217.614 388.102 217.614C385.966 217.614 384.163 217.159 382.693 216.25C381.239 215.341 380.133 214.129 379.375 212.614C378.617 211.098 378.239 209.439 378.239 207.636ZM384.216 205.182V207.636C384.216 208.848 384.496 209.955 385.057 210.955C385.633 211.939 386.648 212.432 388.102 212.432C389.557 212.432 390.557 211.939 391.102 210.955C391.663 209.955 391.943 208.848 391.943 207.636V205.182C391.943 203.97 391.678 202.864 391.148 201.864C390.617 200.848 389.602 200.341 388.102 200.341C386.663 200.341 385.655 200.848 385.08 201.864C384.504 202.879 384.216 203.985 384.216 205.182ZM380.83 243L412.83 196.455H418.511L386.511 243H380.83Z" fill="black"/>
<rect x="236" y="301" width="445" height="24" rx="10" fill="#D9D9D9"/>
<rect x="236" y="301" width="348" height="24" rx="10" fill="#EF5753"/>
<g filter="url(#filter5_d_17_849)">
<rect x="218" y="129" width="475.333" height="277" rx="20" fill="white"/>
</g>
<line x1="221" y1="278.5" x2="693" y2="278.5" stroke="#D9D9D9"/>
<g filter="url(#filter6_d_17_849)">
<rect x="711" y="129" width="475.333" height="277" rx="20" fill="white"/>
</g>
<line x1="714" y1="278.5" x2="1186" y2="278.5" stroke="#D9D9D9"/>
<g filter="url(#filter7_d_17_849)">
<rect x="1204" y="129" width="475.333" height="277" rx="20" fill="white"/>
</g>
<g clip-path="url(#clip1_17_849)" filter="url(#filter8_d_17_849)">
<rect width="50" height="50" transform="translate(29 1019)" fill="white"/>
<path d="M71.5979 1061.61H64.1937V1050.01C64.1937 1047.24 64.1375 1043.68 60.3354 1043.68C56.475 1043.68 55.8854 1046.69 55.8854 1049.8V1061.61H48.4813V1037.75H55.5938V1041H55.6896C56.6833 1039.13 59.1 1037.15 62.7104 1037.15C70.2125 1037.15 71.6 1042.09 71.6 1048.51L71.5979 1061.61ZM40.1188 1034.49C37.7354 1034.49 35.8208 1032.56 35.8208 1030.18C35.8208 1027.81 37.7375 1025.89 40.1188 1025.89C42.4938 1025.89 44.4187 1027.81 44.4187 1030.18C44.4187 1032.56 42.4917 1034.49 40.1188 1034.49ZM43.8312 1061.61H36.4062V1037.75H43.8312V1061.61ZM75.3021 1019H32.6896C30.65 1019 29 1020.61 29 1022.6V1065.4C29 1067.39 30.65 1069 32.6896 1069H75.2958C77.3333 1069 79 1067.39 79 1065.4V1022.6C79 1020.61 77.3333 1019 75.2958 1019H75.3021Z" fill="#3A3A3A"/>
</g>
<path d="M37.25 559.75V522.25H41.4167V555.583H74.75V559.75H37.25ZM43.5 553.5V534.75H51.8333V553.5H43.5ZM53.9167 553.5V524.333H62.25V553.5H53.9167ZM64.3333 553.5V543.083H72.6667V553.5H64.3333Z" fill="#999999"/>
</g>
<defs>
<filter id="filter0_d_17_849" x="81" y="-7" width="1672" height="1153" filterUnits="userSpaceOnUse" color-interpolation-filters="sRGB">
<feFlood flood-opacity="0" result="BackgroundImageFix"/>
<feColorMatrix in="SourceAlpha" type="matrix" values="0 0 0 0 0 0 0 0 0 0 0 0 0 0 0 0 0 0 127 0" result="hardAlpha"/>
<feOffset dx="8" dy="8"/>
<feGaussianBlur stdDeviation="20"/>
<feComposite in2="hardAlpha" operator="out"/>
<feColorMatrix type="matrix" values="0 0 0 0 0.904167 0 0 0 0 0.904167 0 0 0 0 0.904167 0 0 0 1 0"/>
<feBlend mode="normal" in2="BackgroundImageFix" result="effect1_dropShadow_17_849"/>
<feBlend mode="normal" in="SourceGraphic" in2="effect1_dropShadow_17_849" result="shape"/>
</filter>
<filter id="filter1_d_17_849" x="184" y="95" width="555.333" height="357" filterUnits="userSpaceOnUse" color-interpolation-filters="sRGB">
<feFlood flood-opacity="0" result="BackgroundImageFix"/>
<feColorMatrix in="SourceAlpha" type="matrix" values="0 0 0 0 0 0 0 0 0 0 0 0 0 0 0 0 0 0 127 0" result="hardAlpha"/>
<feOffset dx="6" dy="6"/>
<feGaussianBlur stdDeviation="20"/>
<feComposite in2="hardAlpha" operator="out"/>
<feColorMatrix type="matrix" values="0 0 0 0 0.904167 0 0 0 0 0.904167 0 0 0 0 0.904167 0 0 0 1 0"/>
<feBlend mode="normal" in2="BackgroundImageFix" result="effect1_dropShadow_17_849"/>
<feBlend mode="normal" in="SourceGraphic" in2="effect1_dropShadow_17_849" result="shape"/>
</filter>
<filter id="filter2_d_17_849" x="184" y="95" width="555.333" height="357" filterUnits="userSpaceOnUse" color-interpolation-filters="sRGB">
<feFlood flood-opacity="0" result="BackgroundImageFix"/>
<feColorMatrix in="SourceAlpha" type="matrix" values="0 0 0 0 0 0 0 0 0 0 0 0 0 0 0 0 0 0 127 0" result="hardAlpha"/>
<feOffset dx="6" dy="6"/>
<feGaussianBlur stdDeviation="20"/>
<feComposite in2="hardAlpha" operator="out"/>
<feColorMatrix type="matrix" values="0 0 0 0 0.904167 0 0 0 0 0.904167 0 0 0 0 0.904167 0 0 0 1 0"/>
<feBlend mode="normal" in2="BackgroundImageFix" result="effect1_dropShadow_17_849"/>
<feBlend mode="normal" in="SourceGraphic" in2="effect1_dropShadow_17_849" result="shape"/>
</filter>
<filter id="filter3_d_17_849" x="185" y="412" width="1046" height="710" filterUnits="userSpaceOnUse" color-interpolation-filters="sRGB">
<feFlood flood-opacity="0" result="BackgroundImageFix"/>
<feColorMatrix in="SourceAlpha" type="matrix" values="0 0 0 0 0 0 0 0 0 0 0 0 0 0 0 0 0 0 127 0" result="hardAlpha"/>
<feOffset dx="6" dy="6"/>
<feGaussianBlur stdDeviation="20"/>
<feComposite in2="hardAlpha" operator="out"/>
<feColorMatrix type="matrix" values="0 0 0 0 0.904167 0 0 0 0 0.904167 0 0 0 0 0.904167 0 0 0 1 0"/>
<feBlend mode="normal" in2="BackgroundImageFix" result="effect1_dropShadow_17_849"/>
<feBlend mode="normal" in="SourceGraphic" in2="effect1_dropShadow_17_849" result="shape"/>
</filter>
<filter id="filter4_d_17_849" x="1165" y="405" width="555" height="710" filterUnits="userSpaceOnUse" color-interpolation-filters="sRGB">
<feFlood flood-opacity="0" result="BackgroundImageFix"/>
<feColorMatrix in="SourceAlpha" type="matrix" values="0 0 0 0 0 0 0 0 0 0 0 0 0 0 0 0 0 0 127 0" result="hardAlpha"/>
<feOffset dx="6" dy="6"/>
<feGaussianBlur stdDeviation="20"/>
<feComposite in2="hardAlpha" operator="out"/>
<feColorMatrix type="matrix" values="0 0 0 0 0.904167 0 0 0 0 0.904167 0 0 0 0 0.904167 0 0 0 1 0"/>
<feBlend mode="normal" in2="BackgroundImageFix" result="effect1_dropShadow_17_849"/>
<feBlend mode="normal" in="SourceGraphic" in2="effect1_dropShadow_17_849" result="shape"/>
</filter>
<filter id="filter5_d_17_849" x="184" y="95" width="555.333" height="357" filterUnits="userSpaceOnUse" color-interpolation-filters="sRGB">
<feFlood flood-opacity="0" result="BackgroundImageFix"/>
<feColorMatrix in="SourceAlpha" type="matrix" values="0 0 0 0 0 0 0 0 0 0 0 0 0 0 0 0 0 0 127 0" result="hardAlpha"/>
<feOffset dx="6" dy="6"/>
<feGaussianBlur stdDeviation="20"/>
<feComposite in2="hardAlpha" operator="out"/>
<feColorMatrix type="matrix" values="0 0 0 0 0.904167 0 0 0 0 0.904167 0 0 0 0 0.904167 0 0 0 1 0"/>
<feBlend mode="normal" in2="BackgroundImageFix" result="effect1_dropShadow_17_849"/>
<feBlend mode="normal" in="SourceGraphic" in2="effect1_dropShadow_17_849" result="shape"/>
</filter>
<filter id="filter6_d_17_849" x="677" y="95" width="555.333" height="357" filterUnits="userSpaceOnUse" color-interpolation-filters="sRGB">
<feFlood flood-opacity="0" result="BackgroundImageFix"/>
<feColorMatrix in="SourceAlpha" type="matrix" values="0 0 0 0 0 0 0 0 0 0 0 0 0 0 0 0 0 0 127 0" result="hardAlpha"/>
<feOffset dx="6" dy="6"/>
<feGaussianBlur stdDeviation="20"/>
<feComposite in2="hardAlpha" operator="out"/>
<feColorMatrix type="matrix" values="0 0 0 0 0.904167 0 0 0 0 0.904167 0 0 0 0 0.904167 0 0 0 1 0"/>
<feBlend mode="normal" in2="BackgroundImageFix" result="effect1_dropShadow_17_849"/>
<feBlend mode="normal" in="SourceGraphic" in2="effect1_dropShadow_17_849" result="shape"/>
</filter>
<filter id="filter7_d_17_849" x="1170" y="95" width="555.333" height="357" filterUnits="userSpaceOnUse" color-interpolation-filters="sRGB">
<feFlood flood-opacity="0" result="BackgroundImageFix"/>
<feColorMatrix in="SourceAlpha" type="matrix" values="0 0 0 0 0 0 0 0 0 0 0 0 0 0 0 0 0 0 127 0" result="hardAlpha"/>
<feOffset dx="6" dy="6"/>
<feGaussianBlur stdDeviation="20"/>
<feComposite in2="hardAlpha" operator="out"/>
<feColorMatrix type="matrix" values="0 0 0 0 0.904167 0 0 0 0 0.904167 0 0 0 0 0.904167 0 0 0 1 0"/>
<feBlend mode="normal" in2="BackgroundImageFix" result="effect1_dropShadow_17_849"/>
<feBlend mode="normal" in="SourceGraphic" in2="effect1_dropShadow_17_849" result="shape"/>
</filter>
<filter id="filter8_d_17_849" x="25" y="1019" width="58" height="58" filterUnits="userSpaceOnUse" color-interpolation-filters="sRGB">
<feFlood flood-opacity="0" result="BackgroundImageFix"/>
<feColorMatrix in="SourceAlpha" type="matrix" values="0 0 0 0 0 0 0 0 0 0 0 0 0 0 0 0 0 0 127 0" result="hardAlpha"/>
<feOffset dy="4"/>
<feGaussianBlur stdDeviation="2"/>
<feComposite in2="hardAlpha" operator="out"/>
<feColorMatrix type="matrix" values="0 0 0 0 0 0 0 0 0 0 0 0 0 0 0 0 0 0 0.25 0"/>
<feBlend mode="normal" in2="BackgroundImageFix" result="effect1_dropShadow_17_849"/>
<feBlend mode="normal" in="SourceGraphic" in2="effect1_dropShadow_17_849" result="shape"/>
</filter>
<clipPath id="clip0_17_849">
<rect width="1728" height="1117" rx="15" fill="white"/>
</clipPath>
<clipPath id="clip1_17_849">
<rect width="50" height="50" fill="white" transform="translate(29 1019)"/>
</clipPath>
</defs>
</svg>
